<?xml version="1.0" encoding="utf-8"?>
<!-- Generator: Adobe Illustrator 17.0.0, SVG Export Plug-In . SVG Version: 6.00 Build 0)  -->
<!DOCTYPE svg PUBLIC "-//W3C//DTD SVG 1.1//EN" "http://www.w3.org/Graphics/SVG/1.1/DTD/svg11.dtd">
<svg version="1.1" id="Layer_1" xmlns="http://www.w3.org/2000/svg" xmlns:xlink="http://www.w3.org/1999/xlink" x="0px" y="0px"
	 width="1000px" height="1000px" viewBox="0 0 1000 1000" enable-background="new 0 0 1000 1000" xml:space="preserve">
<g>
	<path fill="#FEFEFE" d="M945.036,485.908c-0.128,68.379-11.799,126.774-35.666,182.693
		c-17.348,40.644-40.317,77.786-68.607,111.763c-34.463,41.391-75.167,75.353-121.763,102.04
		c-39.903,22.853-82.5,39.158-127.657,48.521c-23.705,4.915-47.578,7.934-71.781,9.255c-18.154,0.991-36.234,0.727-54.271-0.57
		c-31.088-2.235-61.654-7.766-91.602-16.582c-29.034-8.547-57.022-19.636-83.713-33.93c-3.327-1.782-6.396-2.384-10.286-1.347
		c-46.362,12.354-92.78,24.501-139.183,36.701c-29.752,7.822-59.519,15.593-89.246,23.51c-5.076,1.352-3.029-1.908-2.548-3.703
		c4.684-17.488,9.486-34.945,14.261-52.409c11.464-41.931,22.93-83.862,34.4-125.791c4.023-14.706,7.933-29.444,12.175-44.086
		c1.05-3.624,0.929-6.507-0.967-9.856c-26.861-47.44-43.98-98.263-52.149-152.105c-3.748-24.702-5.438-49.595-4.896-74.575
		c1.542-71.105,18.632-138.259,51.951-201.161c26.05-49.178,60.294-91.958,102.204-128.466
		c46.932-40.883,100.299-70.578,159.647-89.33c27.576-8.713,55.817-14.439,84.619-17.453c19.869-2.079,39.772-3.248,59.722-2.631
		c55.381,1.715,108.883,12.477,160.106,33.931c37.264,15.607,71.863,35.8,103.691,60.648c19.156,14.955,37.319,31.143,53.554,49.214
		c29.946,33.332,55.365,69.833,74.669,110.435c18.469,38.846,31.117,79.517,37.839,121.954
		C943.255,446.042,945.402,469.704,945.036,485.908z"/>
	<path fill="#23B23A" d="M714.24,781.913c0.866,4.002,1.956,7.989,0.794,12.124c-6.287,2.505-11.046,7.428-16.87,10.668
		c-6.77,4.464-13.726,8.612-20.923,12.354c-18.292,10.604-37.612,18.932-57.499,26c-1.254,0.446-2.525,0.837-3.721,1.431
		c-2.166,0.682-4.304,1.449-6.509,2.013c-5.177,1.198-10.273,2.68-15.333,4.306c-65.187,17.214-130.29,16.853-195.311-0.867
		c-9.621-2.866-19.327-5.482-28.7-9.137c-12.712-5.148-25.46-10.216-37.677-16.508c-1.531-0.788-2.938-1.519-3.45-3.289
		c1.837-12.747,5.453-25.011,10.054-37.008c1.911-1.75,4.308-1.66,6.624-1.61c27.657,0.592,55.274-1.362,82.935-1.11
		c36.324,0.33,72.666,0.705,108.977-0.064c55.81-1.182,111.615-0.616,167.422-0.834C708.177,780.371,711.435,779.869,714.24,781.913
		z"/>
	<path fill="#53CE60" d="M747.963,220.137c1.198-0.005,1.751,0.843,2.281,1.722c3.965,5.102,9.01,9.155,13.446,13.801
		c1.951,2.044,3.754,4.21,5.654,6.294c1.01,1.107,2.27,2.508-0.495,3.158c-6.615-6.989-14.912-5.788-23.468-5.718
		c-44.13,0.366-88.264,0.164-132.396,0.175c-3.992,0.001-7.988-0.044-11.969,0.366c-13.302-5.046-26.648-9.764-40.815-12.079
		c-25.014-4.087-49.214-1.431-72.865,7.34c-0.465,0.173-0.936,0.33-1.404,0.494c-8.13-0.432-16.282-0.417-24.38,0.172
		c-5.324,0.387-10.628,0.701-15.958,0.7c-20.831-0.002-41.664-0.203-62.491,0.086c-10.187,0.141-20.276-1.193-30.447-1.123
		c-36.97,0.254-73.9,2.629-110.884,1.998c-3.242-0.055-5.754,1.149-7.996,3.396c-1.981,1.984-3.753,4.295-6.598,5.185
		c-3.257-1.352-0.823-2.768,0.111-3.859c5.841-6.818,12.382-12.961,18.888-19.127c1.317-1.248,2.603-2.563,4.072-3.65
		c3.132-2.673,6.016-5.642,9.383-8.047c4.69-4.516,9.928-8.357,15.11-12.272c4.17-2.896,7.522-7.086,12.881-8.115
		c2.47-0.519,4.962-0.603,7.463-0.653c67.587-1.356,135.196-0.143,202.772-1.243c59.939-0.975,119.866-0.174,179.794-0.83
		c8.47-0.093,16.92-1.398,25.411-0.791c2.37-0.578,4.073,0.766,5.886,1.975c4.553,3.037,9.11,6.062,13.268,9.633
		c8.416,6.577,17.015,12.944,24.393,20.749C746.962,220.245,747.461,220.315,747.963,220.137z"/>
	<path fill="#57D063" d="M704.995,188.013c-0.984,1.246-2.387,0.913-3.689,0.989c-21.253,1.245-42.529,0.996-63.802,0.997
		c-39.623,0.002-79.267-0.818-118.864,0.193c-59.067,1.508-118.132-0.196-177.176,1.063c-16.607,0.354-33.218,0.369-49.824,0.64
		c-1.869,0.03-3.751,1.769-5.635,0.122c0.293-1.669,1.626-2.326,2.878-3.185c25.965-17.816,53.497-32.547,83.302-42.951
		c3.973-1.387,8.326-2.141,11.762-4.919c3.174-1.616,6.465-2.822,10.085-2.873c6.226-0.679,12.081-2.934,18.143-4.324
		c29.365-6.733,59.019-10.154,89.201-9.894c24.001,0.206,47.725,2.397,71.157,7.337c25.186,5.31,49.619,13.171,73.309,23.26
		c16.575,6.041,31.637,15.045,46.634,24.134C696.93,181.301,701.837,183.535,704.995,188.013z"/>
	<path fill="#2AB63F" d="M681.159,694.939c11.355,14.789,20.417,30.736,24.761,49.064c-1.709,1.76-3.968,1.645-6.093,1.575
		c-43.467-1.42-86.843,2.937-130.301,2.042c-12.976-0.267-25.967,0.624-38.934-0.866c-4.772-0.548-9.653-0.335-14.446,0.51
		c-6.683,1.179-13.271-0.73-19.921-0.636c-15.81,0.224-31.615,0.323-47.428,0.761c-28.961,0.804-57.96,0.249-86.943,0.204
		c-2.446-0.004-5.063,0.382-7.063-1.663c8.193-16.305,16.385-32.61,24.578-48.915c2.596-2.059,5.684-1.614,8.645-1.616
		c31.973-0.028,63.957,0.475,95.915-0.215c17.169-0.37,34.222,1.462,51.332,1.138c28.291-0.535,56.6-0.436,84.868-1.248
		c17.776-0.511,35.542-1.93,53.359-1.684C676.135,693.427,678.861,693.146,681.159,694.939z"/>
	<path fill="#26B43C" d="M354.79,745.93c32.157,0.023,64.334,0.703,96.464-0.215c15.462-0.442,30.969-1.203,46.35-0.392
		c11.497,0.606,22.859-1.071,34.247-0.264c29.272,2.074,58.683,2.181,87.82,0.418c28.803-1.743,57.516-0.533,86.248-1.474
		c3.757,12.421,6.718,25.016,8.319,37.91c-36.49,0.029-72.987-0.373-109.469,0.179c-71.105,1.075-142.215,0.447-213.315,1.187
		c-17.439,0.181-34.911,0.256-52.361,0.723C343.122,770.814,348.641,758.242,354.79,745.93z"/>
	<path fill="#3ABF4C" d="M405.81,498.975c2.083,15.876,1.189,31.514-3.781,46.819c-0.249,0.766-0.689,1.47-1.04,2.203
		c-2.487,1.763-5.393,1.92-8.177,1.552c-11.146-1.474-22.263,0.067-33.39,0.065c-47.812-0.011-95.631-0.46-143.435,0.189
		c-23.64,0.321-47.28,0.727-70.923,0.789c-3.885,0.01-6.932,0.792-7.75,5.218c-0.18,0.972-0.741,1.857-1.715,2.34
		c-3.033-2.924-2.473-6.964-2.934-10.535c-1.288-9.966-3.219-19.897-2.644-30.038c1.053-3.769,0.357-7.627,0.598-11.436
		c0.308-4.859,2.111-6.861,6.914-7.552c1.487-0.214,2.99-0.175,4.489-0.207c72.759-1.565,145.529-0.835,218.295-1.036
		c12.809-0.035,25.592-1.539,38.42-0.937C401.329,496.53,404.211,496.037,405.81,498.975z"/>
	<path fill="#3EC24F" d="M405.81,498.975c-1.779-1.233-3.813-1.017-5.795-0.967c-72.501,1.825-145.018,0.368-217.519,1.251
		c-14.585,0.178-29.206,0.329-43.804,0.743c-5.541,0.157-6.468,1.302-6.755,6.825c-0.193,3.723,1.201,7.611-0.934,11.173
		c-2.039-1.685-1.989-4.04-1.986-6.35c0.014-12.364-0.099-24.729,0.053-37.088c1.339-4.773-0.126-9.951,2.082-14.601
		c3.151-7.828,4.211-8.649,13.709-8.522c48.918,0.655,97.814-1.654,146.729-1.013c11.969,0.157,23.944,0.285,35.908,0.521
		c11.73,0.231,23.573-0.756,35.326-1.994c11.276-1.189,22.609-0.422,33.917-0.437c1.511-0.002,2.985,0.325,4.116,1.487
		C402.509,466.327,404.159,482.651,405.81,498.975z"/>
	<path fill="#2EB842" d="M681.159,694.939c-11.982,0.02-24.045-0.84-35.931,0.239c-27.368,2.483-54.781,0.963-82.13,2.093
		c-12.958,0.535-25.906,0.817-38.821,0.498c-6.86-0.169-13.883-0.14-20.733-1.62c-3.619-0.782-7.136,0.958-10.839,0.943
		c-37.778-0.146-75.558-0.082-113.337-0.077c8.511-13.479,11.372-28.856,14.799-44.042c1.111-2.044,3.075-2.376,5.113-2.51
		c2.161-0.143,4.327-0.085,6.491-0.085c66.758-0.002,133.516,0.009,200.274-0.01c14.788-0.004,29.616,0.712,44.25-2.362
		c2.268-0.476,4.653-0.791,6.649,0.997C662.801,665.481,672.112,680.14,681.159,694.939z"/>
	<path fill="#42C452" d="M400.858,450.004c-9.661-0.001-19.338-0.365-28.978,0.083c-13.879,0.644-27.738,1.782-41.589,2.917
		c-4.067,0.333-7.849-1.082-11.867-1.066c-30.314,0.116-60.659-0.781-90.935,0.307c-28.792,1.034-57.557,0.212-86.328,0.754
		c-6.618,0.125-7.86,1.575-8.386,9.957c-1.397-0.728-0.494-2.005-0.779-2.96c-2.469-3.186-1.207-6.896-0.761-10.119
		c1.701-12.28,3.243-24.607,6.177-36.689c1.132-1.992-0.238-5.323,3.245-6.062c19.144,0.548,38.316,0.806,57.432,0.128
		c50.276-1.783,100.564,0.091,150.821-1.138c13.944-0.341,27.893-0.371,41.837-0.695c2.452-0.057,5.054-0.348,7.106,1.583
		C398.855,421.337,399.857,435.67,400.858,450.004z"/>
	<path fill="#45C655" d="M397.854,407.003c-12.433-0.488-25.063-1.272-37.285-0.457c-49.501,3.304-99.016-0.213-148.464,1.676
		c-21.275,0.813-42.517,0.227-63.765,0.796c-2.85,0.076-5.625-0.16-8.342-1.019c-2.113-2.579-0.15-5.092,0.439-7.412
		c1.482-5.844,3.119-11.664,4.983-17.409c2.283-6.232,4.077-12.631,6.51-18.813c0.825-2.097,1.416-4.232,4.409-3.544
		c4.644,1.786,9.519,1.944,14.319,1.473c17.302-1.697,34.636-0.623,51.952-0.876c10.83-0.158,21.676,0.301,32.494-0.088
		c42.807-1.539,85.627-0.728,128.44-0.941c1.333-0.007,2.666-0.005,4,0.001c8.667,0.039,8.671,0.039,8.939,8.637
		c0.021,0.674,0.094,1.325,0.375,1.942C397.19,382.982,397.522,394.993,397.854,407.003z"/>
	<path fill="#49C858" d="M396.859,370.971c-0.252-0.421-0.668-0.819-0.731-1.267c-1.073-7.703-1.063-7.704-8.838-7.704
		c-24.619,0-49.244-0.334-73.856,0.073c-44.371,0.735-88.741,0.949-133.115,1.082c-5.736,0.017-11.538,0.948-17.338,0.823
		c-2.969-0.064-6.019-0.126-7.983-2.98c-1.078-1.142-0.839-2.362-0.324-3.679c4.577-11.704,9.922-23.058,15.597-34.261
		c0.682-1.347,1.547-2.551,2.978-3.232c3.531-3.567,7.824-4.596,12.749-4.435c7.32,0.24,14.66-0.124,21.982,0.101
		c14.331,0.442,28.627-1.353,42.914-0.909c19.638,0.611,39.267,0.948,58.909,0.877c6.698-0.024,13.184-1.098,19.711-2.696
		c5.91-1.447,12.13-2.381,18.067,0.564c1.67,0.829,3.507,1.157,5.346,1.065c9.885-0.496,19.733,0.96,29.674-2.211
		c5.968-1.904,13.096-2.178,19.463,0.833C398.065,332.13,396.677,351.48,396.859,370.971z"/>
	<path fill="#36BD49" d="M135.06,557.989C138.118,549,138.118,549,148.224,549c4.827,0,9.655,0.084,14.48-0.013
		c68.525-1.371,137.061-0.609,205.585-1.326c10.924-0.114,21.802,1.229,32.701,0.336c-5.686,16.919-15.526,31.326-27.048,44.716
		c-45.077-0.228-90.169-0.788-135.224,0.169c-29.105,0.618-58.197,0.271-87.29,0.722c-2.508,0.039-4.969,0.386-7.432,0.734
		c-1.549,0.003-1.755-1.21-2.06-2.318c-2.959-10.749-5.82-21.52-7.198-32.619C134.672,558.881,134.856,558.437,135.06,557.989z"/>
	<path fill="#31BA45" d="M656.943,649.001c-42.892,5.891-86.01,2.259-129.02,2.866c-42.975,0.606-85.965,0.136-128.949,0.122
		c-1.686-0.001-3.334,0.019-4.807,0.984c4.901-15.24,10.134-30.342,18.485-44.137c1.921-0.815,3.93-0.492,5.919-0.475
		c11.819,0.101,23.645,0.265,35.457-0.011c18.817-0.44,37.615,0.585,56.373,1.348c24.64,1.003,49.252,0.338,73.873,0.63
		c6.84,0.081,13.612-0.99,19.714-4.556c1.618-0.945,3.433-1.265,5.284-1.295c11.152-0.182,22.306,0.024,33.458-0.131
		c0.845-0.012,1.637,0.264,2.408,0.59c4.487,7.085,8.493,14.037,8.349,23.14C653.378,635.031,655.702,642.025,656.943,649.001z"/>
	<path fill="#4DCA5B" d="M402.063,313.015c-4.165-0.005-8.331-0.017-12.496-0.013c-3.954,0.004-7.984-0.529-11.409,2.328
		c-1.203,1.003-2.875,0.663-4.366,0.666c-6.165,0.01-12.33-0.018-18.494,0.013c-3.662,0.018-6.981-0.377-10.492-2.208
		c-4.432-2.312-9.837-0.944-14.339,0.269c-5.821,1.569-11.592,2.806-17.54,2.876c-14.327,0.169-28.659,0.174-42.986,0
		c-6.456-0.078-12.863-1.364-19.368-0.961c-22.933,1.422-45.896,0.988-68.85,0.971c-2.385-0.002-4.095,0.794-5.716,2.441
		c-0.753,0.765-1.228,2.587-3.012,1.599c-0.859-4.184,2.403-6.846,3.848-10.161c0.708-1.624,2.159-2.926,1.999-4.912
		c1.38-2.318,2.76-4.636,4.14-6.954c5.354-5.634,9.257-12.231,12.692-19.138c2.104-2.948,4.208-5.896,6.312-8.845
		c0.983,0.352,1.976,0.585,3.029,0.24c6.596-1.022,13.198-1.82,19.874-1.82c26.144,0,52.288-0.026,78.431,0.024
		c4.7,0.009,9.301-0.297,13.77-1.898c2.207-0.791,4.537-1.144,6.885-1.004c32.775,1.953,65.581,0.361,98.369,0.88
		c1.498,0.024,3.001-0.025,4.49,0.167c1.85,0.238,3.657,0.586,4.496,2.593c-7.542,7.753-15.444,15.133-21.571,24.211
		C405.864,300.153,404.548,306.777,402.063,313.015z"/>
	<path fill="#32BB46" d="M143.051,593.99c1.151-1.246,2.359-2.344,4.27-2.002c0.484,0.087,0.997,0.011,1.497,0.012
		c72.918,0.122,145.828-1.734,218.748-0.975c2.221,0.023,4.774-0.833,6.376,1.687c-12.616,15.977-25.448,31.775-39.008,46.968
		c-54.071,1.596-108.156,0.671-162.235,0.89c-3.746,0.015-7.438-0.098-9.269,4.111c-0.775,0.72-1.566,0.621-2.359,0.037
		c-1.908-3.71-3.099-7.745-5.027-11.456c-4.969-11.715-9.281-23.665-12.751-35.912C142.986,596.266,142.511,595.153,143.051,593.99z
		"/>
	<path fill="#35BC48" d="M645.139,604.936c-1.265,0.352-2.518,0.759-3.8,1.034c-0.637,0.136-1.326,0.026-1.991,0.031
		c-16.219,0.118-32.64-1.57-48.089,5.399c-1.905,0.859-3.924,0.589-5.905,0.591c-21.293,0.016-42.621,0.783-63.872-0.166
		c-34.682-1.549-69.359-1.926-104.056-1.805c-1.728,0.006-3.276-0.413-4.773-1.184c4.023-7.811,8.085-15.602,12.059-23.437
		c5.743-11.323,10.176-23.051,10.674-35.901c1.556-0.919,2.148,0.495,2.925,1.163c6.671,5.736,13.624,11.104,19.857,17.398
		c8.98,9.067,20.912,10.979,33.008,11.859c22.155,1.613,42.274-5.057,61.505-15.275c1.748-0.929,3.544-1.767,5.318-2.647
		c17.356-1.866,34.777-1.706,52.183-1.402c4.287,0.075,8.429-1.718,12.715-0.59c5.74,13.979,13.911,26.739,20.263,40.411
		C643.852,601.906,644.481,603.428,645.139,604.936z"/>
	<path fill="#47C756" d="M688.879,389.189c-1.615-10.926-3.114-21.871-4.885-32.771c-1.216-7.485-2.811-14.908-4.237-22.358
		c2.055-2.487,4.978-2.48,7.785-2.57c43.788-1.394,87.589-1.064,131.389-1.079c4.346-0.001,7.764,1.318,10.255,4.981
		c1.4,2.059,3.516,3.531,4.937,5.586c4.75,6.097,6.601,13.591,9.64,20.504c2.659,6.048,4.37,12.479,6.426,18.767
		c0.683,2.09,1.253,4.144-0.04,6.217c-2.52,2.645-5.833,2.115-8.936,2.121c-24.322,0.052-48.665-0.612-72.959,0.207
		c-24.48,0.825-48.946,0.623-73.418,0.837C692.834,389.65,690.835,389.726,688.879,389.189z"/>
	<path fill="#50CC5D" d="M431.332,270.167c-2.096-1.325-4.439-1.175-6.773-1.174c-28.639,0.01-57.278,0.025-85.917-0.013
		c-4.133-0.006-8.255,0.274-12.391-0.807c-2.141-0.559-4.881-0.542-6.863,0.328c-6.522,2.862-13.303,2.508-20.108,2.505
		c-25.808-0.013-51.618-0.133-77.424,0.086c-6.29,0.053-12.569,1.247-18.854,1.916c0.345-4.886,4.728-7.202,7.02-10.853
		c1.901-3.029,4.528-5.609,6.925-8.31c-0.001-0.294,0.049-0.579,0.153-0.855c3.384-2.194,4.651-6.752,8.904-7.976
		c4.133-0.924,5.77-4.857,8.665-7.272c1.583-1.321,2.858-1.951,5.164-1.908c14.811,0.276,29.67,0.807,44.431-0.095
		c8.638-0.528,17.243-0.61,25.859-0.685c14.449-0.127,28.861-1.818,43.322-1.04c32.741,1.762,65.509,0.941,98.261,0.83
		c9.592-0.033,19.211-0.982,28.84-0.839c1.953,0.029,4.086-0.459,5.385,1.686c-14.744,4.622-27.184,13.334-39.414,22.365
		C441.313,261.899,436.385,266.119,431.332,270.167z"/>
	<path fill="#3FC250" d="M698.831,480.265c-2.992-14.555-5.274-29.205-5.904-44.077c-0.833-1.613,0.018-2.52,1.388-3.109
		c1.398-0.602,2.911-0.65,4.41-0.668c51.498-0.612,102.994-1.473,154.499-1.013c3.188,0.028,6.334,0.255,8.955,2.403
		c1.606,1.501,1.52,3.524,1.868,5.498c2.221,12.578,2.315,25.365,3.859,38.008c-0.334,6.587,1.139,13.247-0.813,19.767
		c-2.799-0.455-2.393-2.835-2.641-4.658c-2.052-15.108-2.238-12.636-14.542-12.794c-11.14-0.142-22.284-0.123-33.424-0.013
		c-37.232,0.367-74.458,1.467-111.698,1.006C702.793,480.592,700.797,480.706,698.831,480.265z"/>
	<path fill="#43C553" d="M861.999,435c-2.624-1.663-5.479-2.05-8.57-2.043c-34.138,0.069-68.292-0.583-102.408,0.298
		c-18.117,0.468-36.225,0.384-54.333,0.742c-1.681,0.033-3.463-0.181-3.762,2.192c-2.026-6.46-0.53-13.179-1.504-19.762
		c-1.334-9.013-2.601-18.075-2.544-27.237c1.206-1.664,3.001-1.188,4.601-1.17c46.287,0.519,92.554-1.769,138.842-1.028
		c4.331,0.069,8.665-0.005,12.997,0.016c1.866,0.009,3.735,0.095,4.682-2.007c2.389,0.195,1.883,2.434,2.355,3.726
		c3.639,9.957,5.276,20.468,8.267,30.614c0.875,3.805,1.117,7.722,2.123,11.506C863.133,432.296,863.136,433.776,861.999,435z"/>
	<path fill="#3CC04D" d="M698.831,480.265c1.166-1.708,2.961-1.27,4.566-1.247c49.627,0.699,99.233-1.604,148.86-1.039
		c12.227,0.139,13.348,1.165,13.766,13.806c0.058,1.758-0.656,3.706,0.932,5.209c2.174,4.811,0.57,9.867,0.963,14.794
		c-1.735,6.199-0.398,12.706-1.894,18.94c-0.365,1.522,0.379,3.35-1.349,4.461c-1.936-0.73-2.088-2.535-2.209-4.131
		c-0.265-3.475-2.351-4.426-5.394-4.417c-1.829,0.005-3.659-0.034-5.489-0.034c-45.579,0.013-91.159-0.034-136.738,0.032
		c-1.671,0.002-3.323-0.041-4.95-0.452c-5.279-10.629-7.461-22.165-9.868-33.637C699.176,488.496,698.721,484.41,698.831,480.265z"
		/>
	<path fill="#4BC959" d="M834.001,341.999c-2.358-2.436-5.62-3.946-7.165-7.23c-1.044-2.22-2.987-2.802-5.379-2.799
		c-34.658,0.046-69.325-0.385-103.97,0.289c-10.271,0.2-20.584,0.35-30.868,0.78c-2.297,0.096-4.575,0.668-6.862,1.021
		c-1.624-5.372-3.437-10.695-4.832-16.126c-3.045-11.851-8.422-22.598-14.983-32.824c-0.09-2.775,2.004-3.136,3.981-3.475
		c2.133-0.366,4.308-0.223,6.466-0.223c30.896-0.005,61.792,0.007,92.687-0.011c7.302-0.004,14.596,0.135,21.889-0.783
		c4.776-0.601,9.634-0.463,14.246,1.321c2.536,0.037,3.489,2.111,4.801,3.753c1.247,1.56,1.566,3.955,3.983,4.474
		c3.204,3.939,6.085,8.078,7.937,12.852c0.463,3.746,3.595,6.159,4.77,9.55c1.226,1.454,2.225,3.038,2.806,4.865
		c3.081,6.779,7.164,13.06,9.904,20.003C833.987,338.896,835.394,340.275,834.001,341.999z"/>
	<path fill="#2EB943" d="M162.031,644.992c0.549-6.091,4.618-6.091,9.441-6.076c44.915,0.142,89.831,0.105,134.746,0.065
		c7.784-0.007,15.511-1.558,23.329-0.992c1.946,0.141,4.081-0.436,5.388,1.692c-6.678,9.649-13.95,18.922-19.139,29.524
		c-3.045,6.221-5.858,12.555-8.776,18.839c-10.469-1.288-20.889,0.436-31.332,0.49c-26.252,0.134-52.505,0.042-78.757,0.046
		c-2.989,0-5.987-0.106-8.918,0.587c-3.151,1.378-4.264-1.636-6.198-2.899c-0.977-0.853-1.835-1.78-1.967-3.159
		c0.288-2.33-2.018-3.502-2.461-5.508c-5.209-9.275-9.668-18.929-14.462-28.412C162.265,647.882,161.351,646.597,162.031,644.992z"
		/>
	<path fill="#38BE4A" d="M709.895,526.187c1.714-2.031,4.049-1.145,6.098-1.147c46.823-0.052,93.646-0.041,140.469-0.04
		c7.097,0,7.105,0.002,7.533,7.282c0.06,1.012,0.065,2.006,0.958,2.707c0.192,11.233-2.631,22.059-4.539,33.003
		c-0.28,1.607-0.367,3.287-1.009,4.836c-0.478,1.12-0.695,2.449-2.218,2.717c-38.422,0.129-76.842,0.029-115.263,0.066
		c-1.35,0.001-2.62-0.433-3.94-0.575C726.332,560.069,718.103,543.134,709.895,526.187z"/>
	<path fill="#3DC14E" d="M579.079,464.97c14.885,4.681,29.336,10.171,40.407,21.881c2.934,3.104,1.877,6.938,1.085,10.284
		c-1.648,6.965-6.013,12.308-11.628,16.646c-11.438-0.25-22.879-0.148-34.317-0.336c-1.49-0.024-3.002-0.258-4.004-1.618
		c4.601-3.386,9.982-6.034,11.531-12.296c0.315-1.275,0.929-2.498,1.081-3.784c0.111-0.932,0.017-2.319-0.568-2.811
		c-1.124-0.945-2.041,0.38-2.942,0.992c-4.891,3.325-9.324,7.333-14.73,9.892c-12.29-0.516-24.585-0.152-36.877-0.212
		c-30.924-0.152-61.828,1.695-92.758,0.989c-2.509-0.057-4.946,0.664-7.45,0.583c-5.92-7.587-6.225-9.896-1.39-18.072
		c5.249-8.878,12.836-15.508,21.335-21.168c9.61-1.353,19.265-0.412,28.896-0.493c20.492-0.174,41.006,0.513,61.473-0.265
		c12.49-0.475,24.957-0.786,37.445-0.661C576.815,464.534,578.013,464.289,579.079,464.97z"/>
	<path fill="#4FCB5C" d="M800.998,283.003c-3.203,1.693-5.762-1.282-8.932-1.113c-42.485,2.263-85.01,0.615-127.516,1.097
		c-1.893,0.021-3.706,0.032-4.608,2.122c-11.974-21.072-32.541-31.346-52.794-42.012c-2.035-1.072-4.087-2.109-6.132-3.162
		c2.033-2.333,4.785-1.932,7.421-1.932c45.917-0.004,91.833-0.003,137.75-0.004c1.497,0,3.125,0.369,4.47-0.089
		c7.238-2.464,12.942-0.586,17.372,5.572c0.404,0.562,1.003,1.526,1.968,0.531c2.136-0.507,2.197,1.848,3.479,2.518
		c1.88,1.874,3.895,3.64,4.996,6.146c1.682,1.918,3.337,3.866,5.621,5.124c1.94,1.816,4.049,3.501,4.814,6.225
		c2.828,5.328,7.332,9.477,10.32,14.68C799.985,280.031,801.813,281.004,800.998,283.003z"/>
	<path fill="#2BB640" d="M185.994,689.02c1.354-2.808,3.95-1.991,6.161-1.994c24.132-0.04,48.267-0.261,72.394,0.073
		c12.309,0.17,24.526-1.562,36.82-1.096c2.097,0.079,4.459-0.554,5.65,2.041c-3.995,14.842-7.986,29.684-12,44.521
		c-0.166,0.612-0.546,1.166-0.826,1.747c-2.965,0.585-5.959,0.261-8.939,0.263c-25.563,0.019-51.126,0.022-76.689,0.004
		c-6.957-0.005-13.936-0.353-20.701,1.798c-1.641-0.201-1.617-1.453-1.671-2.651c2.805-8.907,4.905-18.017,7.417-27.014
		c0.271-0.971,0.453-1.922,0.041-2.889c-1.543-2.707-3.472-5.169-5.066-7.848C188.06,693.531,184.656,692.157,185.994,689.02z"/>
	<path fill="#27B43D" d="M186.992,735.999c3.913-2.538,8.192-3.088,12.82-3.067c29.449,0.134,58.899,0.05,88.349,0.107
		c2.041,0.004,4.394-0.877,6.032,1.272c-4.018,15.707-10.036,30.617-17.879,44.798c-1.868,1.323-4.019,1.359-6.194,1.468
		c-26.544,1.329-53.108,0.936-79.668,1.016c-5.362,0.016-11.088-1.182-15.115,4.077c-0.608,0.794-1.484,0.151-1.992-0.6
		c-0.923-2.181-0.008-4.196,0.548-6.266c3.592-13.389,7.15-26.787,11.044-40.092C185.277,737.549,184.923,735.854,186.992,735.999z"
		/>
	<path fill="#34BC47" d="M737.983,575.036c1.456-1.676,3.421-1.006,5.169-1.008c36.331-0.038,72.661-0.026,108.992-0.033
		c2.001,0,4.014-0.144,5.815,0.993c0.793,5.073-1.564,9.545-2.816,14.211c-0.291,1.084-0.589,2.214-0.991,3.293
		c-2.716,8.502-5.397,17.01-8.223,25.473c-1.169,3.501-2.569,5.638-6.658,4.006c-1.377-0.55-2.942-0.46-4.438-0.453
		c-20.407,0.106-40.817-0.296-61.222,0.216c-1.34,0.034-2.656,0.131-3.842-0.651C758.987,605.863,747.434,591.175,737.983,575.036z"
		/>
	<path fill="#23B23A" d="M174,784c0.175,0.781,0.692,2.061,1.145,0.448c1.178-4.198,4.136-4.504,7.703-4.483
		c14.437,0.085,28.884-0.28,43.311,0.118c16.747,0.461,33.418-1.794,50.155-0.974c-4.496,8.823-8.992,17.647-13.488,26.47
		c-1.166,2.981-1.362,6.552-4.91,8.096c-17.72,4.241-35.281,9.095-52.89,13.752c-6.727,1.779-13.455,3.575-20.153,5.477
		c-7.208,1.226-14.129,3.512-21.107,5.606c-1.636,0.491-3.575,1.701-5.081-0.031c-1.244-1.431-0.325-3.112,0.121-4.728
		c4.154-15.041,8.5-30.029,12.445-45.129C171.667,787.029,171.147,784.351,174,784z"/>
	<path fill="#39BF4B" d="M570.622,511.828c9.587,0.057,19.174,0.163,28.761,0.146c3.33-0.006,6.532,0.362,9.56,1.808
		c-2.32,2.68-5.412,4.344-8.317,6.234c-20.326,13.226-39.606,28.137-61.623,38.646c-12.213,5.83-24.804,10.36-38.621,10.496
		c-15.685,0.155-29.477-4.964-41.087-15.275c-8.329-7.397-16.04-15.503-23.866-23.451c-3.616-3.672-5.544-8.514-8.081-13.014
		c1.802-0.739,2.414,0.877,3.355,1.574c18.522,13.705,38.827,22.582,62.297,21.793c17.035-0.573,32.853-6.222,48.211-13.275
		C551.33,522.862,560.836,517.087,570.622,511.828z"/>
	<path fill="#3ABF4C" d="M427.909,505.181c0.985-2.36,3.046-2.224,5.064-2.181c36.034,0.766,72.039-1.476,108.07-1.013
		c6.647,0.085,13.296-0.017,19.944,0.034c1.539,0.012,3.502-0.635,4.007,1.8c-15.632,10.211-31.648,19.467-49.545,25.495
		c-28.932,9.745-54.479,3.331-78.05-14.478C433.806,512.125,429.336,510.095,427.909,505.181z"/>
	<path fill="#44C554" d="M600.789,419.093c-2.797-6.091-4.472-12.603-9.479-17.717c-17.408-17.782-39.291-3.817-42.599,12.922
		c-1.712,8.666-1.689,25.153,0.889,32.626c-5.304-1.162-9.057-3.311-11.149-8.92c-4.602-12.339-7.842-25.038-6.25-38.015
		c2.524-20.569,11.574-28.512,33.277-31.872c6.055-0.937,12.282-0.405,18.313,1.255c16.182,4.453,23.592,16.107,26.13,31.755
		c0.906,5.582,1.634,11.187,1.181,16.869C607.846,420.07,604.346,419.845,600.789,419.093z"/>
	<path fill="#30BA44" d="M769.769,621.083c2.715-0.839,5.473-1.129,8.332-1.119c18.965,0.068,37.931,0.016,56.896,0.059
		c2.268,0.005,4.568-0.444,6.737,1.075c2.362,1.654,2.309-0.948,2.694-2.056c2.385-6.872,4.576-13.811,6.976-20.678
		c0.753-2.154,0.942-4.568,2.578-6.373c0.62,0.054,0.634,0.709,1.001,1.013c-3.328,10.566-6.659,21.13-9.981,31.698
		c-0.48,1.526-0.79,3.122-1.957,4.335c-3.751,4.73-4.912,10.69-7.547,15.956c-3.854,7.7-6.974,15.763-11.447,23.16
		c-0.084,0.73,0.116,1.596-0.894,1.887c-2.093,3.971-4.852,7.595-6.232,11.938c0.12,1.101-0.084,2.188-1.437,1.822
		c-0.582-0.157-0.914-1.292-1.331-2c-11.956-20.331-26.17-38.997-41.733-56.674C771.366,623.928,769.836,622.963,769.769,621.083z"
		/>
	<path fill="#40C351" d="M579.079,464.97c-4.879,1.232-9.861,0.88-14.821,1.062c-36.018,1.327-72.05,0.916-108.078,0.999
		c-2.852,0.007-5.615-0.232-8.327-1.089c15.912-11.325,32.791-20.759,52.287-24.06c9.499-1.608,18.724,1.624,27.82,4.156
		C545.52,450.928,561.9,459.035,579.079,464.97z"/>
	<path fill="#44C554" d="M419.157,415.002c0.508-10.696,4.077-20.559,9.361-29.615c7.495-12.846,26.079-15.213,37.357-4.948
		c8.824,8.031,14.005,18.051,14.181,30.253c0.084,5.825,0.039,11.652,0.048,17.478c0.006,3.828,0.053,7.603-2.88,10.734
		c-0.646,0.689-0.28,2.414-2.002,2.022c-1.7-0.387-1.08-1.878-1.028-2.878c0.52-10.004-1.966-19.478-5.313-28.719
		c-2.556-7.056-8.015-11.626-15.233-12.926c-7.108-1.28-12.823,2.054-17.227,7.818c-3.253,4.257-6.082,8.654-7.364,13.914
		C426.831,413.695,422.543,415.772,419.157,415.002z"/>
	<path fill="#38BE4B" d="M622.897,560.003c-4.148,2.067-8.581,2.077-13.086,2.033c-11.137-0.109-22.276,0.01-33.414-0.056
		c-5.276-0.031-10.39,2.132-15.74,1.046c-0.973-0.198-2.003-0.075-2.657-1.03c16.923-9.9,32.157-22.149,47.487-34.252
		c2.052-1.62,2.946-1.98,4.171,0.784C614.27,538.937,619.137,549.235,622.897,560.003z"/>
	<path fill="#40C351" d="M600.789,419.093c3.279-1.863,6.867-0.821,10.314-1.096c1.098,10.863-0.716,21.513-2.397,32.166
		c-0.853,5.404-1.877,10.781-2.769,16.18c-0.398,2.409-0.948,3.748-3.715,1.859c-4.159-2.838-8.799-4.599-13.896-5.033
		c-1.671-0.142-3.202-0.768-4.128-2.367c15.4-7.643,21.02-19.745,17.383-37.302C601.279,422.039,601.051,420.562,600.789,419.093z"
		/>
	<path fill="#41C452" d="M419.157,415.002c7.134-2.492,8.79-1.968,9.899,3.133c0.045,5.99-0.264,12.007,0.213,17.962
		c0.844,10.546,5.137,19.213,15.365,24.222c-2.196,2.833-5.42,3.551-7.902,5.33c-1.842,1.32-2.636-0.7-3.543-1.679
		c-9.141-9.872-14.635-21.293-14.487-35.004C418.752,424.309,418.999,419.656,419.157,415.002z"/>
	<path fill="#49CB56" d="M646.994,155.02c-7.5-1.612-14.311-5.15-21.407-7.849c-21.457-8.159-43.629-13.329-66.188-17.243
		c-24.427-4.237-49.025-5.535-73.738-4.875c-22.848,0.609-45.426,3.72-67.762,8.52c-6.626,1.424-13.177,3.201-19.744,4.889
		c-1.47,0.378-2.86,1.038-4.122-0.373c15.102-5.639,30.903-8.315,46.701-10.985c26.847-4.537,53.911-5.323,81.016-3.85
		c14.54,0.79,29.077,2.25,43.331,5.576c1.709,1.695,4.125-0.196,5.9,1.164l0.022,0.015c1.365,1.216,3.311-0.213,4.671,1.026
		c16.961,4.067,33.776,8.645,50.131,14.759c7.107,2.657,14.131,5.538,21.193,8.317c0.231,0.203,0.308,0.406,0.229,0.607
		C647.15,154.919,647.072,155.02,646.994,155.02z"/>
	<path fill="#2CB741" d="M747.94,709.169c-2.721-2.899-5.347-5.894-8.182-8.676c-5.635-5.53-11.636-10.08-20.114-10.788
		c-6.267-0.523-8.658-4.303-6.557-8.437c1.461-2.874,3.837-4.176,7.022-3.12c15.203,5.038,27.212,14.202,35.703,27.858
		C753.874,708.768,750.526,708.019,747.94,709.169z"/>
	<path fill="#24B33B" d="M320.996,765.989c-5.354,14.042-9.746,28.376-13.115,43.023c-4.147,1.326-5.987-2.425-8.814-4.004
		c3.35-14.239,8.09-27.99,14.477-41.162C318.734,761.84,320.169,762.252,320.996,765.989z"/>
	<path fill="#29B63F" d="M747.94,709.169c1.459-3.951,5.573-1.298,7.871-3.164c7.68,10.342,13.663,21.528,16.921,34.066
		c-0.401,1.446-1.535,2.305-2.581,3.237c-1.982,0.98-2.086,4.624-5.355,3.777c-3.143-8.775-5.2-17.964-9.844-26.165
		C752.704,716.952,750.283,713.083,747.94,709.169z"/>
	<path fill="#15A82D" d="M398.004,848.963c9.862,2.127,19.695,4.397,29.591,6.347c13.952,2.748,28.025,4.534,42.207,5.845
		c16.298,1.506,32.592,1.097,48.836,0.622c16.497-0.482,32.924-2.82,49.142-6.195c9.06-1.886,18.127-3.743,27.191-5.613
		c1.083-0.3,1.334,0.166,1.041,1.131c-4.964,1.318-9.928,2.636-14.892,3.955c-1.525,1.125-3.613-0.406-5.063,1.075l0.035-0.028
		c-1.523,1.049-3.595-0.479-5.013,1.067l0.029-0.039c-1.572,0.942-3.567-0.384-5.067,0.946l0.015-0.012
		c-1.834,1.214-4.224-0.55-5.974,1.115l0.027-0.051c-1.898,1.015-4.23-0.517-6.037,1.031l0.026-0.047
		c-2.229,1.141-4.875-0.569-7.036,1.033l0.032-0.042c-2.585,1.133-5.513-0.518-8.051,0.995l0.024,0.017
		c-3.263,1.113-6.781-0.491-10.015,0.941l-0.031,0.005c-4.381,0.908-8.818,0.149-13.216,0.448c-1.578,0.107-3.288-0.616-4.72,0.623
		l-0.005-0.039c-8.721,0.644-17.443,0.646-26.164-0.001l0.001,0.037c-5.58-1.676-11.377,0.228-16.983-1.025l-0.016,0.023
		c-3.301-1.609-6.913,0.088-10.266-0.965c-20.685-1.807-40.926-5.891-60.797-11.867C396.53,849.242,396.921,848.805,398.004,848.963
		z"/>
	<path fill="#28B53E" d="M320.996,765.989c-1.583-3.846-5.068-1.08-7.452-2.142c5.841-13.774,11.398-27.677,18.576-40.843
		c3.115-0.914,6.182-1.656,7.982,2.199C332.996,738.453,327.031,752.237,320.996,765.989z"/>
	<path fill="#2BB740" d="M340.102,725.203c-2.28-2.116-5.497-0.831-7.982-2.199c3.931-8.803,8.709-17.105,14.663-24.704
		c0.702-0.896,1.431-1.958,2.398-2.42c2.313-1.106,4.973-3.217,7.286-0.683c2.208,2.419,1.092,5.537-0.672,7.667
		C349.962,709.904,345.294,717.732,340.102,725.203z"/>
	<path fill="#14A82B" d="M174,784c-2.969,10.462-5.943,20.923-8.906,31.387c-1.803,6.367-3.355,12.818-5.467,19.081
		c-1.397,4.142,0.371,4.24,3.36,3.345c7.279-2.18,14.377-5.028,22.018-5.837c0.576-0.386,1.191-0.638,1.742-0.031
		c0.669,0.736,0.089,1.344-0.515,1.402c-2.149,0.206-4.08,1.257-6.212,1.471c-6.523,1.905-13.048,3.804-19.566,5.723
		c-1.267,0.373-2.656,1.108-3.785,0.178c-1.345-1.107-0.084-2.385,0.243-3.583c9.495-34.79,18.984-69.582,28.491-104.369
		c0.079-0.29,0.392-0.517,0.596-0.774c0.91-0.247,1.362-0.021,1.04,1.006c-0.015,1-0.031,2-0.046,3
		C181.935,751.803,177.397,767.747,174,784z"/>
	<path fill="#24B538" d="M143.051,593.99c3.997,13.238,8.622,26.251,13.958,39.01c0.679,1.386,0.553,2.286-1.296,2.144
		c-8.149-18.744-14.076-38.211-18.612-58.101c-3.375-14.798-6.356-29.68-7.194-44.894c-2.217-20.685-1.235-41.438-1.296-62.168
		c-0.001-0.296,0.279-0.575,0.67-1.046c2.045,1.468,1.112,3.324,0.747,5.072c-0.004,11.733,0.08,23.466-0.072,35.197
		c-0.039,3.024,0.799,5.856,1.046,8.797c0.085,11.96,1.725,23.757,3.681,35.524c0.244,1.468,0.255,2.976,0.375,4.465
		C137.723,569.989,140.387,581.99,143.051,593.99z"/>
	<path fill="#44C554" d="M595.507,425.693c0.531,2.756-0.05,4.918-3.091,5.233c-3.061,0.316-4.173-1.372-4.6-4.47
		c-0.887-6.445-2.883-12.189-10.468-14.091c-2.84-0.712-4.456-3.616-3.231-6.78c1.148-2.967,5.354-3.825,8.654-1.696
		C590.685,408.993,594.831,416.388,595.507,425.693z"/>
	<path fill="#43C553" d="M464.206,425.223c0.264,1.767,0.142,3.292-1.909,4.017c-2.018,0.714-3.517-0.115-4.957-1.358
		c-2.679-2.311-2.381-5.735-3.117-8.715c-0.835-3.381-2.212-5.885-6.01-6.24c-3.37-0.315-4.877-2.35-4.059-5.439
		c0.912-3.446,3.429-5.442,7.147-4.375c4.15,1.19,7.243,3.937,9.261,7.785C462.908,415.378,463.837,420.234,464.206,425.223z"/>
	<path fill="#49CB56" d="M383.949,140.962c-0.352,1.93-0.514,2.078-2.852,2.898c-15.659,5.495-31.266,11.135-46.095,18.665
		c-17.037,8.651-33.35,18.521-48.995,29.492c-3.669,2.662-7.338,5.324-11.006,7.986c-0.413-0.337-1.037-0.446-1.172-1.084
		c12.553-10.691,26.587-19.232,40.767-27.467c20.803-12.082,42.703-21.856,65.531-29.503
		C381.37,141.531,382.673,141.287,383.949,140.962z"/>
	<path fill="#3FC34E" d="M834.001,341.999c-2.688-8.768-7.9-16.422-11.035-24.992c0.317-0.329,0.634-0.33,0.954-0.004
		c11.968,20.185,20.754,41.785,27.656,64.114c3.743,12.106,6.279,24.585,9.36,36.895c-0.187,0.466-0.503,0.805-0.97,0.998
		c-3.197-9.705-4.407-19.948-7.993-29.544c-0.568-1.52-0.626-3.284-1.972-4.466c-2.985-13.103-7.948-25.506-13.381-37.739
		C835.826,345.471,834.878,343.751,834.001,341.999z"/>
	<path fill="#33BD44" d="M130.029,474.006c0-1.264,0-2.528,0-3.793c-0.906,20.653-1.431,41.299-0.122,61.935
		c-1.574-4.947-1.462-10.153-1.696-15.193c-1.472-31.739-0.021-63.325,6.312-94.559c0.708-3.49,0.453-7.22,2.484-10.396
		c0.894-0.226,1.383-0.046,1.01,1.003c-1.423,9.105-2.78,18.221-4.291,27.311c-1.084,6.523-2.001,13.045-1.731,19.679
		c-1.985,2.626-0.575,5.651-0.991,8.462C130.73,470.316,131.675,472.388,130.029,474.006z"/>
	<path fill="#49CA56" d="M646.994,155.02c0.003-0.303,0.005-0.606,0.006-0.908c7.904,2.07,14.802,6.38,21.993,10.002
		c18.236,9.185,35.231,20.377,51.674,32.433c0.922,0.676,1.678,1.577,2.511,2.374c-0.139,0.637-0.763,0.745-1.178,1.081
		c-5.668-3.996-11.336-7.992-17.005-11.987c-15.889-11.083-32.721-20.531-50.069-29.118
		C652.29,157.591,649.14,157.311,646.994,155.02z"/>
	<path fill="#3FC34E" d="M178.844,305.923c2.076,1.664,0.148,2.958-0.557,4.14c-2.087,3.499-4.176,6.973-5.29,10.933
		c-7.286,12.755-13.736,25.887-17.999,40.002c-3.537,5.035-4.542,11.1-6.767,16.668c-0.716,1.792-0.798,3.843-2.21,5.348
		c-0.453-0.199-0.759-0.532-0.92-1c4.777-17.349,11.951-33.757,19.572-49.996C168.887,323.039,173.629,314.355,178.844,305.923z"/>
	<path fill="#1FAA35" d="M180.021,834.817c2.01-0.733,4.02-1.466,6.023-2.215c0.005-0.002-0.048-0.331-0.133-0.367
		c-0.288-0.121-0.602-0.178-0.906-0.26c12.876-4.22,26.045-7.381,39.131-10.842c9.604-2.54,19.201-5.105,28.819-7.591
		c1.655-0.428,3.34-1.454,5.125-0.34c0.38,0.958-0.578,1.254-0.918,1.856c-9.608,2.303-18.958,5.654-28.782,7.078
		c-3.421,1.025-6.891,1.865-10.356,2.72c-3.649,1.755-7.568,2.566-11.515,3.275c-2.54,0.442-5.074,0.907-7.464,1.931
		C192.843,832.202,186.574,834.078,180.021,834.817z"/>
	<path fill="#19A930" d="M615.961,843.984c10.237-4.279,20.469-8.571,30.712-12.834c10.458-4.352,20.49-9.555,30.327-15.149
		c0.63,0.595,1.779,0.143,2.228,1.105c-19.047,11.111-38.997,20.212-60.007,26.954c-0.758,0.243-1.484,0.585-2.226,0.881
		C616.598,844.678,616.038,844.592,615.961,843.984z"/>
	<path fill="#29B43C" d="M858.979,572.997c1.991-12.669,3.983-25.338,5.974-38.007c0.305-7.696,0.614-15.392,2.048-22.987
		c0.429-0.332,0.85-0.322,1.262,0.031c0.254,0.725,0.259,1.429-0.175,2.096c-0.635,19.907-3.143,39.556-8.106,58.866
		C859.647,573.334,859.313,573.352,858.979,572.997z"/>
	<path fill="#1FAA35" d="M329.041,821.009c12.501,7.313,26.088,12.246,39.318,17.964c0.587,0.254,1.108,0.661,1.66,0.997
		c-0.112,0.585-0.449,0.952-1.04,1.073c-13.503-4.198-26.114-10.475-38.783-16.618C328.6,823.651,327.858,822.679,329.041,821.009z"
		/>
	<path fill="#21AE35" d="M824.05,668.155c3.783-8.652,7.554-17.31,11.353-25.955c2.262-5.149,4.568-10.279,6.866-15.444
		c0.993,0.616,0.61,1.533,0.775,2.283c-4.46,13.348-10.848,25.825-17.336,38.253C825.471,667.744,824.616,667.874,824.05,668.155z"
		/>
	<path fill="#32BC43" d="M859.966,419.01c0.323-0.333,0.647-0.665,0.97-0.998c2.633,10.466,4.345,21.081,5.137,31.844
		c1.122,2.623-0.321,5.516,0.857,8.132c0.058,0.595,0.116,1.19,0.173,1.785c1.063,3.681-0.33,7.537,0.804,11.213
		c0.075,0.968,0.15,1.936,0.225,2.904c-0.029,0.189-0.058,0.377-0.086,0.566c-0.125,0.948-0.138,1.943-1.065,2.557
		c-1.484-1.303-0.973-3.062-0.96-4.644c0.101-12.167-1.941-24.141-3.206-36.184c-0.044-0.419-0.535-0.791-0.818-1.185
		C861.321,429.67,860.644,424.34,859.966,419.01z"/>
	<path fill="#43C551" d="M226.004,245.014c-3.209,2.39-4.472,6.952-8.904,7.976c1.562-4.821,5.913-7.391,9.036-10.905
		c7.695-8.66,15.821-16.929,24.8-24.301c0.694,0.719,0.607,1.46,0.063,2.213C242.262,227.931,233.908,236.248,226.004,245.014z"/>
	<path fill="#21AD36" d="M162.031,644.992c5.165,11.083,11.401,21.647,16.01,32.999c-0.386,0.383-0.795,0.43-1.232,0.087
		c-6.24-9.892-11.413-20.324-15.813-31.15c-0.633-0.98-0.794-1.96,0.005-2.938C161.344,644.324,161.687,644.658,162.031,644.992z"/>
	<path fill="#23AE39" d="M187.039,732.999c-0.347-0.335-0.693-0.671-1.04-1.006c1.585-8.855,4.445-17.378,6.781-26.037
		c0.165-0.612,0.114-1.283,0.164-1.926c0.118-0.586,0.479-0.924,1.061-1.035c1.119,0.805,1.263,2.068,0.917,3.133
		C192.03,715.009,190.956,724.423,187.039,732.999z"/>
	<path fill="#46C454" d="M772.988,247.019c-0.997-1.002-1.995-2.003-2.993-3.005c-5.98-6.148-12.005-12.255-17.893-18.491
		c-0.889-0.941-3.258-1.45-1.858-3.664c8.849,7.136,16.487,15.465,23.783,24.13C773.909,246.563,773.563,246.906,772.988,247.019z"
		/>
	<path fill="#46C754" d="M722,200.001c0.393-0.36,0.785-0.721,1.178-1.081c8.893,6.335,17.462,13.049,24.785,21.218
		c-1.594,1.561-2.388-0.101-3.198-0.922C737.762,212.112,729.663,206.316,722,200.001z"/>
	<path fill="#1EA832" d="M368.979,841.043c0.346-0.358,0.693-0.715,1.04-1.073c9.328,2.997,18.657,5.995,27.985,8.993
		c-0.382,0.444-0.765,0.888-1.147,1.333C387.33,847.919,377.954,845.085,368.979,841.043z"/>
	<path fill="#43C451" d="M800.998,283.003c-3.872-5.372-7.736-10.75-11.622-16.112c-0.651-0.898-1.898-1.646-0.47-2.863
		c5.646,5.389,9.668,12.034,14.117,18.343c1.774,2.516,3.321,5.192,4.972,7.795c-0.27,1.631-0.951,1.424-1.722,0.345
		C804.495,288.022,802.754,285.507,800.998,283.003z"/>
	<path fill="#3AC04B" d="M145.101,382.014c0.307,0.333,0.613,0.666,0.92,1c-1.789,6.866-3.605,13.726-5.348,20.604
		c-0.362,1.426-0.457,2.92-0.675,4.382c-1.883,1.184-0.108,3.816-1.979,5.005c-0.337-0.335-0.673-0.669-1.01-1.003
		C138.747,401.747,141.589,391.79,145.101,382.014z"/>
	<path fill="#14A52A" d="M679.228,817.105c-0.875-0.101-1.742-0.218-2.228-1.105c6.995-4.007,13.99-8.014,20.984-12.02
		c1.045-0.336,1.298,0.106,1.036,1.054C692.85,809.758,686.178,813.66,679.228,817.105z"/>
	<path fill="#45C454" d="M195.676,279.831c1.092,0.6,1.255,1.339,0.537,2.41c-3.864,5.769-7.656,11.588-11.553,17.335
		c-0.961,1.417-1.506,0.68-1.677-0.607C186.817,292.326,191,285.916,195.676,279.831z"/>
	<path fill="#46C454" d="M216.948,253.845c-1.94,5.129-6.522,8.36-9.284,12.915c-1.341,2.211-3.094,4.173-4.661,6.247
		c-0.82-0.432-0.967-1.201-1.014-2.021c3.947-5.028,7.887-10.061,11.848-15.078C214.637,254.895,215.368,253.713,216.948,253.845z"
		/>
	<path fill="#49C656" d="M273.828,198.919c0.391,0.361,0.781,0.723,1.172,1.084c-4.999,4.002-9.998,8.004-14.996,12.006
		c-0.948,0.155-1.436-0.114-1.077-1.166C263.279,206.101,268.549,202.504,273.828,198.919z"/>
	<path fill="#3CC04D" d="M868.087,514.129c-0.096-0.724-0.192-1.448-0.289-2.172c-0.5-12.553-0.4-25.107-0.052-37.661
		c0.107-0.156,0.236-0.291,0.387-0.406c1.594,4.986,0.875,10.128,0.785,15.179C868.769,497.423,869.916,505.831,868.087,514.129z"/>
	<path fill="#17A52C" d="M699.02,805.034c-0.345-0.351-0.69-0.703-1.035-1.054c5.208-3.675,10.398-7.375,15.637-11.005
		c1.167-0.808,1.251,0.288,1.413,1.062C709.894,797.991,704.837,802.066,699.02,805.034z"/>
	<path fill="#2CB03F" d="M858.979,572.997c0.334-0.001,0.668-0.001,1.002-0.002c-0.506,6.96-2.943,13.437-4.999,20.01
		c-0.334-0.338-0.667-0.675-1.001-1.013c1.326-5.668,2.653-11.336,3.979-17.004C858.014,574.179,858.182,573.427,858.979,572.997z"
		/>
	<path fill="#2EB943" d="M161,643.99c-0.001,0.98-0.003,1.959-0.004,2.939c-2.419-3.634-3.902-7.686-5.284-11.785
		c0.949-0.402,1.252-1.195,1.296-2.144C158.609,636.566,161.257,639.75,161,643.99z"/>
	<path fill="#16A72D" d="M596.012,851.1c-0.347-0.377-0.694-0.754-1.041-1.131c4.866-1.883,9.747-3.707,15.038-3.989
		c0.226,0.202,0.3,0.403,0.22,0.6c-0.079,0.197-0.157,0.295-0.234,0.295C605.529,848.93,600.748,849.938,596.012,851.1z"/>
	<path fill="#EDF8EF" d="M257.162,815.057c0.306-0.619,0.612-1.237,0.918-1.856c1.582-2.541,3.164-5.082,4.746-7.623
		C263.271,813.605,263.173,813.769,257.162,815.057z"/>
	<path fill="#25A73A" d="M484.918,864.092c8.721,0,17.443,0,26.164,0.001C502.361,865.392,493.639,865.344,484.918,864.092z"/>
	<path fill="#1FA733" d="M185.994,689.02c0.257,2.652,3.038,4.204,3.036,6.969c-0.375,0.39-0.775,0.417-1.198,0.079
		c-2.417-3.014-4.385-6.304-6.017-9.801C184.736,684.864,183.893,689.177,185.994,689.02z"/>
	<path fill="#4DC85A" d="M258.926,210.843c0.359,0.389,0.718,0.777,1.077,1.166c-3.001,2.663-6.003,5.326-9.004,7.989
		c-0.021-0.738-0.042-1.475-0.063-2.213C253.257,215.076,256.014,212.87,258.926,210.843z"/>
	<path fill="#23A436" d="M299.067,805.008c3.443,0.223,5.402,3.713,8.814,4.004c0.058,0.898-0.057,2.679-0.513,2.378
		C304.466,809.468,300.044,809.401,299.067,805.008z"/>
	<path fill="#1DA632" d="M816.923,681.98c0.146-4.988,3.076-8.522,6.232-11.938C822.449,674.737,819.709,678.37,816.923,681.98z"/>
	<path fill="#23AB37" d="M187.832,696.067c0.399-0.026,0.798-0.053,1.198-0.079c2.453,1.772,3.565,4.495,4.975,7.007
		c-0.354,0.345-0.707,0.69-1.061,1.035C190.753,701.688,189.186,698.946,187.832,696.067z"/>
	<path fill="#23B23A" d="M511.087,864.131c5.857-2.405,11.965-0.595,17.937-1.071C523.12,864.687,517.064,863.748,511.087,864.131z"
		/>
	<path fill="#23B23A" d="M467.936,863.104c5.656,0.426,11.452-1.462,16.983,1.025C479.263,863.715,473.522,864.701,467.936,863.104z
		"/>
	<path fill="#42BB50" d="M820,313c-0.613-3.63-5.256-5.618-4.068-9.982c1.754,2.859,3.507,5.718,5.261,8.577
		C821.752,312.876,820.985,313.03,820,313z"/>
	<path fill="#46C354" d="M772.988,247.019c0.347-0.343,0.693-0.686,1.04-1.029c2.289,1.898,4.562,3.808,5.256,6.917
		c-0.391,0.5-0.817,0.533-1.28,0.099C776.332,251.01,774.66,249.014,772.988,247.019z"/>
	<path fill="#25AF3A" d="M764.795,747.085c1.726-1.364,3.453-2.728,5.179-4.092c0.48,0.377,0.516,0.792,0.108,1.245
		c-1.214,2.204-2.146,4.646-4.928,5.86C765.021,748.98,764.908,748.033,764.795,747.085z"/>
	<path fill="#22A736" d="M609.995,846.876c0.004-0.298,0.009-0.597,0.013-0.895c1.725-1.44,3.782-1.887,5.953-1.997
		c0.344,0.319,0.689,0.638,1.034,0.956C614.75,845.903,612.558,847.06,609.995,846.876z"/>
	<path fill="#4BC458" d="M778.004,253.006c0.427-0.033,0.853-0.066,1.28-0.099c2.043,1.199,3.91,2.571,4.807,4.895
		C780.634,258.016,779.881,254.798,778.004,253.006z"/>
	<path fill="#21AB37" d="M218.024,824.855c3.22-1.788,6.706-2.566,10.356-2.72C225.149,823.884,221.705,824.818,218.024,824.855z"/>
	<path fill="#3FC250" d="M867.908,470.986c-1.891-3.621-0.559-7.473-0.805-11.213C868.509,463.429,867.799,467.237,867.908,470.986z
		"/>
	<path fill="#44C352" d="M820,313c0.397-0.468,0.795-0.936,1.192-1.405c1.223,1.644,2.475,3.274,2.727,5.407L823.443,317
		c0,0-0.476,0.006-0.477,0.006C821.977,315.671,820.989,314.335,820,313z"/>
	<path fill="#26AA3A" d="M176.809,678.078c0.41-0.029,0.82-0.058,1.231-0.087c0.661,1.685,3.813,2.489,1.808,5.116
		C178.463,681.656,177.453,679.978,176.809,678.078z"/>
	<path fill="#23B23A" d="M457.654,862.162c3.429,0.253,7.035-1.381,10.266,0.965C464.507,862.71,460.971,863.603,457.654,862.162z"
		/>
	<path fill="#23B23A" d="M529.054,863.055c3.164-2.168,6.674-0.661,10.015-0.941C535.851,863.712,532.382,862.634,529.054,863.055z"
		/>
	<path fill="#3FC250" d="M866.93,457.988c-1.84-2.547-0.607-5.418-0.857-8.132C867.537,452.443,866.768,455.265,866.93,457.988z"/>
	<path fill="#16A72D" d="M539.044,862.097c2.455-2.182,5.364-0.689,8.051-0.995C544.557,862.61,541.712,861.637,539.044,862.097z"/>
	<path fill="#21AB37" d="M199.046,830.061c2.154-1.932,4.743-2.182,7.462-1.931C204.159,829.303,201.669,829.938,199.046,830.061z"
		/>
	<path fill="#18A72D" d="M770.082,744.238c-0.036-0.415-0.071-0.83-0.107-1.245c0.919-0.974,1.838-1.948,2.757-2.922
		C774.082,742.88,771.276,743.047,770.082,744.238z"/>
	<path fill="#16A72D" d="M547.063,861.144c2.081-2.149,4.677-0.786,7.036-1.033C551.913,861.541,549.385,860.64,547.063,861.144z"/>
	<path fill="#57D063" d="M570.983,129.993c-1.977-0.338-4.278,0.966-5.901-1.164C567.049,129.22,569.228,128.531,570.983,129.993z"
		/>
	<path fill="#16A72D" d="M560.083,859.178c1.658-2.159,3.97-0.814,5.974-1.115C564.256,859.458,562.067,858.771,560.083,859.178z"/>
	<path fill="#16A72D" d="M554.072,860.158c1.71-2.113,3.999-0.841,6.037-1.031C558.269,860.479,556.07,859.726,554.072,860.158z"/>
	<path fill="#55CA60" d="M575.676,131.035c-1.58-0.238-3.394,0.592-4.671-1.026C572.584,130.253,574.389,129.466,575.676,131.035z"
		/>
	<path fill="#16A72D" d="M576.058,856.129c1.358-1.909,3.344-0.862,5.063-1.075C579.635,856.367,577.739,855.742,576.058,856.129z"
		/>
	<path fill="#16A72D" d="M571.08,857.168c1.326-1.977,3.3-0.911,5.013-1.067C574.634,857.455,572.734,856.735,571.08,857.168z"/>
	<path fill="#16A72D" d="M566.042,858.075c1.411-1.805,3.334-0.864,5.067-0.946C569.608,858.452,567.73,857.754,566.042,858.075z"/>
	<path fill="#22B336" d="M867.746,474.296c0.018,12.554,0.037,25.108,0.054,37.661c-0.267,0.028-0.533,0.043-0.8,0.045
		c-0.015-5.003-0.03-10.006-0.045-15.009c0.009-6.66,0.018-13.32,0.028-19.98C867.108,476.072,866.714,474.983,867.746,474.296z"/>
	<path fill="#FBFDFC" d="M477.181,459.147c0.443-4.425,1.25-8.532,7.122-8.813c1.406-0.067,2.831-0.887,4.137-1.572
		c1.23-0.645,2.392-1.345,3.629-0.261c1.478,1.295,1.419,3.048,0.639,4.566c-2.076,4.043-5.316,7.188-8.74,10.048
		c-1.583,1.323-3.866,1.013-5.681,0.157C476.625,462.489,477.334,460.656,477.181,459.147z"/>
	<path fill="#FBFDFC" d="M517.082,463.764c-4.099-0.093-11.991-10.302-10.989-14.18c0.624-2.415,2.436-2,3.947-1.46
		c4.83,1.725,8.674,4.78,11.099,9.351C523.231,461.416,521.584,463.865,517.082,463.764z"/>
</g>
</svg>
