<?xml version="1.0" encoding="UTF-8" standalone="no"?>
<svg
   id="Layer_1"
   data-name="Layer 1"
   viewBox="0 0 874.47 878.64"
   version="1.1"
   sodipodi:docname="mono_logo_light.svg"
   inkscape:version="1.2.1 (9c6d41e410, 2022-07-14, custom)"
   xmlns:inkscape="http://www.inkscape.org/namespaces/inkscape"
   xmlns:sodipodi="http://sodipodi.sourceforge.net/DTD/sodipodi-0.dtd"
   xmlns="http://www.w3.org/2000/svg"
   xmlns:svg="http://www.w3.org/2000/svg">
  <defs
     id="defs11" />
  <sodipodi:namedview
     id="namedview9"
     pagecolor="#ffffff"
     bordercolor="#000000"
     borderopacity="0.25"
     inkscape:showpageshadow="2"
     inkscape:pageopacity="0.0"
     inkscape:pagecheckerboard="0"
     inkscape:deskcolor="#d1d1d1"
     showgrid="false"
     inkscape:zoom="0.78644267"
     inkscape:cx="438.04846"
     inkscape:cy="438.68423"
     inkscape:window-width="1600"
     inkscape:window-height="841"
     inkscape:window-x="0"
     inkscape:window-y="210"
     inkscape:window-maximized="1"
     inkscape:current-layer="Layer_1" />
  <path
     d="M523.13,976.31c1.81-6.76,3.33-12.54,4.89-18.31q11.79-43.35,23.61-86.68c10.7-38.92,21.57-77.79,32.16-116.73a11.7,11.7,0,0,0-.79-8c-21.47-38.52-37.58-79.1-46.13-122.39-3.65-18.48-5.64-37.32-7.81-56.06-1.28-11-2.37-22.16-1.89-33.18,1-21.46,2.54-42.94,4.83-64.31,3.75-34.84,13.65-68.18,26.75-100.59a436.35,436.35,0,0,1,61.72-106.45,431.67,431.67,0,0,1,48.43-52.22,436.24,436.24,0,0,1,100.77-69.14,428.61,428.61,0,0,1,109.38-37.1c24.94-4.82,50-8.32,75.6-7.29,16.79.67,33.69-.24,50.39,1.22a407.33,407.33,0,0,1,74.42,13.8,432.39,432.39,0,0,1,141.74,69.46c21.88,16.18,42.68,33.66,60.66,54a633.55,633.55,0,0,1,41.49,52.85c22.75,32,39.5,67.24,52,104.37a417.68,417.68,0,0,1,18.76,81.53c4.25,33.7,4.39,67.53,1.49,101.19-5,57.66-22.15,111.91-49.59,162.86a440.35,440.35,0,0,1-171.39,174.42,412.11,412.11,0,0,1-101.31,40.89c-17.89,4.55-36.23,7.39-54.47,10.46-22.64,3.82-45.55,4.65-68.44,3.9a437.34,437.34,0,0,1-67.91-7.44c-25-4.77-49.53-11.07-73.11-20.52-17.5-7-34.4-15.49-51.65-23.12a11.21,11.21,0,0,0-6.87-.67q-76.44,19.77-152.81,39.84c-22.83,6-45.6,12.29-68.41,18.4C528,975.74,526.23,975.84,523.13,976.31ZM629.41,870.69c2.64-.2,4.42-.06,6.06-.49,28.56-7.47,57.07-15.1,85.66-22.46a15.5,15.5,0,0,0,10.74-8.37c14.38-26.48,27.9-53.27,35.53-82.67,3.46-13.32,6.86-26.71,11.51-39.63,7.49-20.86,21.57-37.63,35.45-54.53,14.67-17.87,29.34-35.81,42.74-54.63,12.73-17.85,17.75-38.49,15.95-60.49-1.21-14.91-3-29.77-4.11-44.67q-2.4-31.11-4.26-62.24c-1.47-24.46-1.92-48.93,2.31-73.19,1.7-9.78,3.14-19.91,9.28-28.14,20.56-27.52,47-47.45,79.28-59.17,18.33-6.65,37.43-10.28,56.85-7.88,26.37,3.26,50.62,12.9,73.81,26a97.66,97.66,0,0,1,43.1,48.33c11.66,28.06,16.16,58.17,18.89,88.41,1.3,14.4,2.29,28.84,3.86,43.21,1.69,15.35,3.81,30.65,5.91,46s5.37,30.12,12,44.08c16,33.39,38.1,62.83,59.5,92.71,11.9,16.62,24.56,32.7,36.79,49.09,1.92,2.56,3.37,5.47,5.46,8.91,1.49-2.46,2.66-4.06,3.49-5.82,8.49-18,17.77-35.69,25.18-54.12,12.91-32.1,19.87-65.84,22-100.28,1.19-19.68-.1-39.54-.93-59.29-.84-20.13-5.14-39.78-10.2-59.23-14.69-56.44-42-106.12-81-149.33a361.27,361.27,0,0,0-384-99.61q-94.19,32.48-158.78,108.44-68.64,80.88-82.65,186A358.05,358.05,0,0,0,614.44,628c10.35,38.4,27,73.84,48.62,107.12a9.51,9.51,0,0,1,1.39,6.79c-9.47,35.22-19.19,70.37-28.84,105.54C633.57,854.9,631.63,862.36,629.41,870.69ZM902.29,587c-1.81,7.39-2.54,14.69-5.36,21-6.39,14.42-14.38,28.13-20.64,42.59a477.48,477.48,0,0,0-17.08,45.67c-2.63,8.33-3.38,17.19-7.63,25.15-5.87,11-11.08,22.33-16.84,33.39-15.7,30.13-30.08,60.73-36.94,94.35-.78,3.8.05,5.46,3.28,6.9,5.47,2.44,10.74,5.3,16.23,7.68a364.71,364.71,0,0,0,218.16,23c49.34-10,94.38-30.08,135.57-59,2.61-1.84,3.36-3.73,3-6.66-2.67-20.45-6.92-40.5-14.26-59.86-5.63-14.85-15.86-26.84-24-40.1-11.52-18.64-21.65-37.81-22.43-60.46-.09-2.76-.11-5.89-1.37-8.2-13.75-25.29-27-50.77-37.32-77.72-1.32-3.45-3.24-6.68-5-10.31-1.68,1.23-2.77,2-3.79,2.77-17.33,13.8-34.77,27.41-54.8,37.28-18,8.84-36.58,14.26-56.82,12.48-13.27-1.17-25.28-4.64-34.58-15.38C914.66,596,908.09,591.8,902.29,587Zm-8.44-30.12a13.33,13.33,0,0,0,.72,1.56c9.3,15.58,22.42,27.69,36.81,38.19,12.58,9.18,27.39,12.62,42.68,8.94,10.88-2.62,22.13-5.8,31.7-11.35,21.71-12.58,42.72-26.43,63.47-40.57,5-3.42,8.62-9.6,11.6-15.19,2.5-4.71,2.82-10.35-2.71-14.16s-10.5-8.41-16.45-11c-13.67-5.95-27.73-11-41.74-16.19-11.37-4.19-22.71-8.68-34.41-11.69-7.88-2-16.94-4-24.48-2-23.67,6.05-45,17.36-62.07,35.3-4.07,4.29-6.46,10.28-9.16,15.72-.67,1.34.1,3.79.89,5.4,3.7,7.62,10.4,12.31,17.09,17,22,15.57,45.68,19.58,71.47,10.94,17.84-6,34.09-14.92,49.61-25.34,5.18-3.48,10.24-7.12,15.48-10.76,1.73,5.2-.85,12.53-6,15.31-15.63,8.44-31.06,17.46-47.34,24.47-22.34,9.62-45.61,11.05-68.4,1C912.68,568.05,903.43,562.09,893.85,556.84Zm172.83-48.08c.46-2.18,1-4.53,1.45-6.9,3.42-18.36,6.28-36.75,3.65-55.54-2.24-16.08-8.18-29.47-25.46-33.79-6.17-1.55-13-2.36-19.24-1.34-20.5,3.38-28.37,10-31.15,29.73-1.86,13.15,1.22,26.12,6.14,38.58,1.88,4.75,5.24,6.72,10.11,8-.16-1-.22-1.64-.36-2.25a60.11,60.11,0,0,1,.74-32.54c5.76-18.27,25.89-23.09,39.86-10.07,9.94,9.27,14.47,30.81,9.36,43.67-2.86,7.22-7.92,12-16.35,14.81ZM939.75,481.63l2.4.19c.9-4.49,2.17-8.94,2.61-13.48s0-9.31.1-14c.39-12.28-4.57-22.31-13-30.74-12-12-31.85-7.78-39.22,7.52-6.81,14.15-8.57,28.94-7.3,44.16,1,12.37,7.21,22.47,16.18,31.1l8-4.92c-3.59-3.79-7.38-6.73-9.8-10.54-8-12.55-5.81-35.69,4.13-46.65,11-12.12,25.67-5.07,29.75,6,3.22,8.72,3.9,18.37,5.68,27.61C939.44,479.14,939.57,480.39,939.75,481.63Zm-162.83,361c.55-2.92.8-5,1.35-7,9.45-35.18,22.26-68.82,45-97.92a9.86,9.86,0,0,0,1.75-4.5c.18-1.28,0-3.34-.79-3.85a5,5,0,0,0-4.42-.31c-2.44,1.54-5.15,3.36-6.54,5.76-6.52,11.35-13.31,22.62-18.74,34.5-9.58,20.94-19.65,41.73-25.4,64.23-.79,3.07-.52,4.63,2.19,6C772.91,840.23,774.43,841.21,776.92,842.63Zm445.67-60.72c8-5.39,8.32-6.22,5.59-14.41a66.53,66.53,0,0,0-3.11-7.86c-10-20.68-22.32-39-45.7-46.47-1.54-.49-4-.76-4.94.08-1.57,1.35-3.34,3.87-3.07,5.59s2.7,3.66,4.61,4.44c4.39,1.78,9.77,1.88,13.46,4.48,13.21,9.32,22.78,21.66,27.7,37.31C1218.89,770.68,1220.75,776.27,1222.59,781.91ZM929.82,466.4c-1.23-4.61-1.44-9-3.49-12.13a31.56,31.56,0,0,0-9.78-9.14c-2.82-1.73-5.51.76-6.47,3.66-1,3.07.42,5,3.84,5.45,4.19.57,5.33,3.84,6.16,7.43a19.28,19.28,0,0,0,2.53,6.83,5.34,5.34,0,0,0,4.67,1.6C928.44,469.8,929.08,467.56,929.82,466.4ZM1057.53,468c-1-8.27-3.43-14.33-8.63-19-1.82-1.63-4-3.74-6.11-3.93s-4.39,1.81-6.6,2.84c1.18,2,2,5.27,3.61,5.72,7.06,2,8.92,7.53,10.06,13.44.55,2.84,1.15,5.3,4.24,4.63C1055.67,471.41,1056.77,468.91,1057.53,468Z"
     transform="translate(-523.13 -97.68)"
     id="path2"
     style="fill:#ffffff" />
  <path
     d="M944.5,504.07c-.57-.79-2.32-2.14-2.52-3.69-.68-5.28,1.81-8.27,6.92-9.5a27.92,27.92,0,0,0,4.54-1.89c2.83-1.25,4.18.15,4.31,2.76C957.92,495.16,949.3,503.93,944.5,504.07Z"
     transform="translate(-523.13 -97.68)"
     id="path4"
     style="fill:#ffffff" />
  <path
     d="M981.19,504c-4,.08-12-9.51-10.92-13.47.25-.93,2.86-2.27,3.31-1.94,3.92,2.84,8.1,5.59,11.18,9.24C987.34,500.9,985.24,503.94,981.19,504Z"
     transform="translate(-523.13 -97.68)"
     id="path6"
     style="fill:#ffffff" />
</svg>
