<svg id="Layer_1" data-name="Layer 1" xmlns="http://www.w3.org/2000/svg" viewBox="0 0 874.44 878.63"><defs><style>.cls-1{fill:#fff;}</style></defs><path id="path2" class="cls-1" d="M0,878.63c1.81-6.76,3.33-12.54,4.89-18.31Q16.68,817,28.5,773.64c10.7-38.92,21.57-77.79,32.16-116.73a11.7,11.7,0,0,0-.79-8c-21.47-38.52-37.58-79.1-46.13-122.39C10.09,508,8.1,489.2,5.93,470.46c-1.28-11-2.37-22.16-1.89-33.18C5,415.82,6.58,394.34,8.87,373c3.75-34.84,13.65-68.18,26.75-100.59A437.6,437.6,0,0,1,246.54,44.57,428.2,428.2,0,0,1,355.92,7.47c24.94-4.82,50-8.32,75.6-7.29,16.79.67,33.69-.24,50.39,1.22a407.23,407.23,0,0,1,74.42,13.8A432.4,432.4,0,0,1,698.07,84.66c21.88,16.18,42.68,33.66,60.66,54a633.1,633.1,0,0,1,41.49,52.85c22.75,32,39.5,67.24,52,104.37A417.4,417.4,0,0,1,871,377.41c4.25,33.7,4.39,67.53,1.49,101.19-5,57.66-22.15,111.91-49.59,162.86A440.38,440.38,0,0,1,651.49,815.88a412,412,0,0,1-101.31,40.89c-17.89,4.55-36.23,7.39-54.47,10.46-22.64,3.82-45.55,4.65-68.44,3.9a437.49,437.49,0,0,1-67.91-7.44c-25-4.77-49.53-11.07-73.11-20.52-17.5-7-34.4-15.49-51.65-23.12a11.25,11.25,0,0,0-6.87-.67q-76.44,19.77-152.81,39.84c-22.83,6-45.6,12.29-68.41,18.4C4.87,878.06,3.1,878.16,0,878.63ZM106.28,773c2.64-.2,4.42-.06,6.06-.49,28.56-7.47,57.07-15.1,85.66-22.46a15.49,15.49,0,0,0,10.74-8.37c14.38-26.48,27.9-53.27,35.53-82.67,3.46-13.32,6.86-26.71,11.51-39.63,7.49-20.86,21.57-37.63,35.45-54.53C305.9,547,320.57,529.05,334,510.23c12.73-17.85,17.75-38.49,15.95-60.49-1.21-14.91-3-29.77-4.11-44.67q-2.4-31.11-4.26-62.24c-1.47-24.46-1.92-48.93,2.31-73.19,1.7-9.78,3.14-19.91,9.28-28.14,20.56-27.52,47-47.45,79.28-59.17,18.33-6.65,37.43-10.28,56.85-7.88,26.37,3.26,50.62,12.9,73.81,26a97.64,97.64,0,0,1,43.1,48.33c11.66,28.06,16.16,58.17,18.89,88.41,1.3,14.4,2.29,28.84,3.86,43.21,1.69,15.35,3.81,30.65,5.91,46s5.37,30.12,12,44.08c16,33.39,38.1,62.83,59.5,92.71,11.9,16.62,24.56,32.7,36.79,49.09,1.92,2.56,3.37,5.47,5.46,8.91,1.49-2.46,2.66-4.06,3.49-5.82,8.49-18,17.77-35.69,25.18-54.12,12.91-32.1,19.87-65.84,22-100.28,1.19-19.68-.1-39.54-.93-59.29-.84-20.13-5.14-39.78-10.2-59.23-14.69-56.44-42-106.12-81-149.33a361.27,361.27,0,0,0-384-99.61Q228.94,126,164.35,202,95.71,282.83,81.7,388a358.13,358.13,0,0,0,9.61,142.37c10.35,38.4,27,73.84,48.62,107.12a9.5,9.5,0,0,1,1.39,6.79c-9.47,35.22-19.19,70.37-28.84,105.54C110.44,757.22,108.5,764.68,106.28,773ZM379.16,489.32c-1.81,7.39-2.54,14.69-5.36,21-6.39,14.42-14.38,28.13-20.64,42.59a476.48,476.48,0,0,0-17.08,45.67c-2.63,8.33-3.38,17.19-7.63,25.15-5.87,11-11.08,22.33-16.84,33.39-15.7,30.13-30.08,60.73-36.94,94.35-.78,3.8.05,5.46,3.28,6.9,5.47,2.44,10.74,5.3,16.23,7.68a364.76,364.76,0,0,0,218.16,23c49.34-10,94.38-30.08,135.57-59,2.61-1.84,3.36-3.73,3-6.66-2.67-20.45-6.92-40.5-14.26-59.86-5.63-14.85-15.86-26.84-24-40.1C601.13,604.79,591,585.62,590.22,563c-.09-2.76-.11-5.89-1.37-8.2-13.75-25.29-27-50.77-37.32-77.72-1.32-3.45-3.24-6.68-5-10.31-1.68,1.23-2.77,2-3.79,2.77-17.33,13.8-34.77,27.41-54.8,37.28-18,8.84-36.58,14.26-56.82,12.48-13.27-1.17-25.28-4.64-34.58-15.38C391.53,498.32,385,494.12,379.16,489.32Zm-8.44-30.12a14.69,14.69,0,0,0,.72,1.56c9.3,15.58,22.42,27.69,36.81,38.19,12.58,9.18,27.39,12.62,42.68,8.94,10.88-2.62,22.13-5.8,31.7-11.35C504.34,484,525.35,470.11,546.1,456c5-3.42,8.62-9.6,11.6-15.19,2.5-4.71,2.82-10.35-2.71-14.16s-10.5-8.41-16.45-11c-13.67-5.95-27.73-11-41.74-16.19-11.37-4.19-22.71-8.68-34.41-11.69-7.88-2-16.94-4-24.48-2-23.67,6.05-45,17.36-62.07,35.3-4.07,4.29-6.46,10.28-9.16,15.72-.67,1.34.1,3.79.89,5.4,3.7,7.62,10.4,12.31,17.09,17,22,15.57,45.68,19.58,71.47,10.94,17.84-6,34.09-14.92,49.61-25.34,5.18-3.48,10.24-7.12,15.48-10.76,1.73,5.2-.85,12.53-6,15.31-15.63,8.44-31.06,17.46-47.34,24.47-22.34,9.62-45.61,11.05-68.4,1-9.93-4.41-19.18-10.37-28.76-15.62Zm172.83-48.08c.46-2.18,1-4.53,1.45-6.9,3.42-18.36,6.28-36.75,3.65-55.54-2.24-16.08-8.18-29.47-25.46-33.79-6.17-1.55-13-2.36-19.24-1.34-20.5,3.38-28.37,10-31.15,29.73-1.86,13.15,1.22,26.12,6.14,38.58,1.88,4.75,5.24,6.72,10.11,8-.16-1-.22-1.64-.36-2.25a60.16,60.16,0,0,1,.74-32.54C495.19,336.8,515.32,332,529.29,345c9.94,9.27,14.47,30.81,9.36,43.67-2.86,7.22-7.92,12-16.35,14.81ZM416.62,384l2.4.19c.9-4.49,2.17-8.94,2.61-13.48s0-9.31.1-14c.39-12.28-4.57-22.31-13-30.74-12-12-31.85-7.78-39.22,7.52-6.81,14.15-8.57,28.94-7.3,44.16,1,12.37,7.21,22.47,16.18,31.1l8-4.92c-3.59-3.79-7.38-6.73-9.8-10.54-8-12.55-5.81-35.69,4.13-46.65,11-12.12,25.67-5.07,29.75,6,3.22,8.72,3.9,18.37,5.68,27.61C416.31,381.46,416.44,382.71,416.62,384Zm-9.93-15.23c-1.23-4.61-1.44-9-3.49-12.13a31.51,31.51,0,0,0-9.78-9.14c-2.82-1.73-5.51.76-6.47,3.66-1,3.07.42,5,3.84,5.45,4.19.57,5.33,3.84,6.16,7.43a19.25,19.25,0,0,0,2.53,6.83,5.36,5.36,0,0,0,4.67,1.6C405.31,372.12,406,369.88,406.69,368.72Zm127.71,1.6c-1-8.27-3.43-14.33-8.63-19-1.82-1.63-4-3.74-6.11-3.93s-4.39,1.81-6.6,2.84c1.18,2,2,5.27,3.61,5.72,7.06,2,8.92,7.53,10.06,13.44.55,2.84,1.15,5.3,4.24,4.63C532.54,373.73,533.64,371.23,534.4,370.32Z" transform="translate(0 0)"/><path id="path4" class="cls-1" d="M421.37,406.39c-.57-.79-2.32-2.14-2.52-3.69-.68-5.28,1.81-8.27,6.92-9.5a28.22,28.22,0,0,0,4.54-1.89c2.83-1.25,4.18.15,4.31,2.76C434.79,397.48,426.17,406.25,421.37,406.39Z" transform="translate(0 0)"/><path id="path6" class="cls-1" d="M458.06,406.32c-4,.08-12-9.51-10.92-13.47.25-.93,2.86-2.27,3.31-1.94,3.92,2.84,8.1,5.59,11.18,9.24C464.21,403.22,462.11,406.26,458.06,406.32Z" transform="translate(0 0)"/></svg>