<svg version="1.0" xmlns="http://www.w3.org/2000/svg" viewBox="0 0 540.000000 540.000000" preserveAspectRatio="xMidYMid meet">

<g transform="translate(0.000000,540.000000) scale(0.100000,-0.100000)"
fill="currentColor" stroke="none">
<path d="M2365 4964 c-438 -67 -849 -274 -1179 -594 -457 -444 -706 -1037
-706 -1683 0 -194 16 -347 55 -523 176 -792 746 -1435 1488 -1679 230 -75 420
-105 672 -105 256 0 433 29 678 110 798 266 1384 987 1512 1861 20 139 20 515
0 654 -104 734 -530 1368 -1151 1713 -227 126 -470 209 -721 247 -131 19 -519
19 -648 -1z m679 -283 c695 -141 1254 -645 1481 -1336 83 -251 110 -445 102
-729 -9 -332 -76 -596 -223 -886 -29 -58 -60 -114 -67 -124 -14 -19 -16 -18
-37 25 -37 72 -128 209 -194 289 -174 213 -358 505 -408 650 -21 60 -53 257
-63 385 -25 311 -62 550 -107 685 -22 68 -83 176 -127 223 -65 71 -247 169
-387 209 -94 26 -276 31 -364 9 -170 -42 -400 -195 -492 -328 -16 -24 -38 -78
-50 -120 -20 -71 -22 -101 -21 -328 0 -161 6 -309 17 -415 51 -491 52 -488
-307 -931 -130 -161 -174 -245 -221 -424 -40 -151 -77 -256 -118 -339 l-30
-59 -55 54 c-312 305 -532 738 -598 1177 -87 573 75 1181 433 1623 83 103 281
291 381 363 249 178 537 296 833 341 145 22 482 14 622 -14z m19 -1342 c57
-16 104 -63 122 -122 17 -59 20 -215 5 -303 -18 -104 -19 -107 -34 -95 -8 7
-33 17 -57 24 l-44 13 32 17 c44 23 66 70 66 137 0 81 -35 154 -88 185 -51 30
-64 31 -116 4 -59 -30 -82 -87 -77 -189 3 -74 2 -77 -17 -70 -30 10 -64 119
-65 203 0 52 5 79 24 115 23 46 46 63 116 86 27 8 94 6 133 -5z m-633 -48 c14
-10 38 -38 53 -64 23 -36 30 -61 34 -126 4 -54 2 -90 -7 -111 -16 -38 -23 -32
-27 23 -7 83 -30 140 -66 165 -57 38 -93 29 -142 -37 -21 -30 -25 -46 -25
-109 0 -80 7 -101 51 -148 l30 -31 -25 -11 c-22 -10 -28 -8 -52 21 -47 55 -58
94 -57 192 1 93 25 177 61 219 42 47 120 55 172 17z m-11 -182 c13 -39 14 -76
2 -84 -15 -8 -41 24 -41 51 0 17 -8 27 -25 34 -27 10 -32 29 -14 47 18 18 65
-11 78 -48z m679 1 c29 -43 30 -90 2 -90 -14 0 -20 7 -20 21 0 31 -18 59 -46
69 -14 6 -24 18 -24 29 0 44 49 28 88 -29z m-288 -189 c367 -129 440 -168 440
-236 0 -54 -39 -96 -175 -188 -240 -163 -337 -206 -460 -207 -100 0 -158 30
-263 133 -46 45 -90 95 -99 111 l-15 29 33 -22 c19 -12 67 -38 107 -58 61 -30
86 -36 160 -41 106 -6 181 11 302 69 138 66 197 105 209 141 6 17 9 33 7 35
-2 3 -37 -17 -78 -44 -179 -121 -290 -165 -419 -167 -82 -1 -89 1 -170 41 -89
45 -155 100 -165 139 -10 38 14 81 78 139 56 50 170 118 256 151 54 20 151 11
252 -25z m440 -547 c30 -71 81 -178 113 -238 31 -60 57 -121 57 -135 1 -55 31
-169 61 -226 17 -33 62 -107 100 -165 38 -59 82 -141 98 -185 37 -102 68 -258
73 -360 l3 -80 -55 -37 c-85 -59 -304 -163 -421 -201 -472 -155 -972 -119
-1414 100 -162 80 -152 68 -131 160 32 135 74 241 191 481 79 160 118 252 125
293 15 82 66 210 143 359 36 70 70 151 77 185 8 33 15 62 17 64 1 2 33 -23 70
-56 93 -82 121 -95 223 -100 154 -9 301 49 488 193 59 45 111 81 116 80 6 -1
35 -61 66 -132z m579 -689 c95 -48 190 -183 225 -321 20 -78 20 -103 -1 -126
-24 -26 -33 -22 -33 15 0 47 -26 147 -54 211 -35 80 -126 173 -176 181 -44 7
-63 25 -54 49 9 23 37 20 93 -9z m-1959 -79 c0 -7 -21 -44 -46 -82 -78 -116
-154 -290 -194 -440 -11 -43 -21 -79 -23 -80 -2 -2 -12 2 -22 10 -17 12 -18
18 -7 67 16 69 142 363 193 451 39 66 74 102 91 92 4 -3 8 -11 8 -18z"/>
<path d="M2537 2917 c-38 -15 -51 -77 -16 -77 16 0 59 52 59 71 0 21 -3 22
-43 6z"/>
<path d="M2650 2915 c0 -8 13 -29 29 -47 28 -31 31 -32 47 -16 16 16 15 18
-14 47 -33 33 -62 41 -62 16z"/>
</g>
</svg>
