<?xml version="1.0" encoding="utf-8"?>
<!-- Generator: Adobe Illustrator 17.0.0, SVG Export Plug-In . SVG Version: 6.00 Build 0)  -->
<!DOCTYPE svg PUBLIC "-//W3C//DTD SVG 1.1//EN" "http://www.w3.org/Graphics/SVG/1.1/DTD/svg11.dtd">
<svg version="1.1" xmlns="http://www.w3.org/2000/svg" xmlns:xlink="http://www.w3.org/1999/xlink" x="0px" y="0px" width="1000px"
	 height="1000px" viewBox="0 0 1000 1000" enable-background="new 0 0 1000 1000" xml:space="preserve">
<g id="Layer_2">
	<linearGradient id="SVGID_1_" gradientUnits="userSpaceOnUse" x1="215.2301" y1="867.1625" x2="187.5007" y2="-1.7334">
		<stop  offset="0" style="stop-color:#23B33A"/>
		<stop  offset="1" style="stop-color:#53CF5F"/>
	</linearGradient>
	<rect x="141.456" y="705.457" fill="url(#SVGID_1_)" width="142.493" height="164.992"/>
	<linearGradient id="SVGID_2_" gradientUnits="userSpaceOnUse" x1="486.6748" y1="863.5722" x2="486.6748" y2="112.1098">
		<stop  offset="0" style="stop-color:#23B33A"/>
		<stop  offset="1" style="stop-color:#54CF60"/>
	</linearGradient>
	<circle fill="url(#SVGID_2_)" cx="486.675" cy="504.458" r="412.896"/>
</g>
<g id="Layer_1">
	<g>
		<path fill="#FDFDFD" d="M47.61,948.827c2.181-8.271,4.064-15.615,6.056-22.929c15.603-57.302,31.214-114.602,46.855-171.894
			c2.969-10.875,5.984-21.739,9.193-32.545c0.965-3.25,0.804-5.9-0.92-8.938c-24.788-43.686-41.745-90.304-50.081-139.788
			c-3.522-20.903-5.457-42.183-6.506-63.371c-2.852-57.615,6.303-113.539,25.915-167.767c17.09-47.253,41.491-90.36,73.18-129.364
			c30.131-37.085,65.101-68.8,105.299-94.632c48.83-31.379,101.558-53.359,158.861-63.264c21.029-3.635,42.406-5.868,63.719-7.129
			c58.205-3.443,114.767,5.467,169.624,25.094c46.952,16.799,89.849,40.836,128.763,72.109
			c17.539,14.095,34.308,29.033,49.32,45.695c23.675,26.277,44.661,54.605,61.89,85.648c19.323,34.816,33.777,71.483,43.297,110.118
			c5.359,21.749,9.563,43.733,10.792,66.114c1.102,20.074,2.272,40.227,1.678,60.294c-1.088,36.735-7.386,72.758-17.769,108.069
			c-14.185,48.242-36.131,92.715-65.361,133.489c-10.509,14.659-22.294,28.489-34.333,41.951
			c-31.088,34.763-67.391,63.296-107.758,86.453c-32.441,18.61-66.859,32.763-103.02,42.657
			c-23.819,6.517-47.967,11.43-72.492,13.582c-20.319,1.783-40.839,2.551-61.225,2.029c-32.995-0.844-65.55-5.804-97.511-14.297
			c-32.956-8.757-64.617-20.846-94.698-36.928c-3.933-2.103-7.468-2.493-11.722-1.363c-57.378,15.245-114.784,30.381-172.19,45.517
			C87.275,938.499,68.064,943.482,47.61,948.827z M428.316,516.226c-0.306,0.216-0.613,0.432-0.052,0.037
			c-0.381,0.575-0.171,0.258,0.039-0.059c-0.285,0.473-0.933,1.161-0.8,1.386c2.529,4.275,4.558,9.043,7.87,12.617
			c7.689,8.295,15.677,16.378,24.148,23.864c11.477,10.143,25.128,15.178,40.604,15.086c13.978-0.083,27.222-3.822,38.936-10.762
			c23.53-13.94,46.532-28.803,69.371-43.86c5.879-3.876,10.63-9.874,12.025-17.233c0.624-3.293,0.845-8.464-1.06-10.109
			c-6.563-5.668-13.56-11.574-21.448-14.827c-22.774-9.39-45.954-17.845-69.203-26.016c-10.144-3.565-21.058-7.037-31.754-4.106
			c-25.203,6.904-47.917,18.771-65.724,38.4c-3.633,4.005-5.555,9.651-7.831,14.735c-0.58,1.297,0.134,3.53,0.891,5.006
			c3.573,6.971,9.382,11.776,15.626,16.346c24.928,18.244,51.614,21.854,80.519,10.888c21.307-8.084,40.417-19.888,58.68-33.265
			c0.998-0.731,2.126-1.284,3.299-1.983c1.342,5.497-1.466,12.839-6.519,15.658c-13.889,7.748-27.579,16.015-42.044,22.53
			c-24.897,11.214-50.632,14.709-76.748,3.518C446.657,529.586,436.418,524.604,428.316,516.226z M155.282,842.067
			c33.607-8.87,66.16-17.433,98.679-26.127c1.676-0.448,3.652-1.669,4.48-3.11c17.965-31.275,34.246-63.32,41.644-99
			c6.651-32.074,21.751-59.56,43.335-83.928c11.474-12.954,22.183-26.587,33.195-39.948c22.06-26.765,33.54-56.569,29.52-92.08
			c-3.855-34.055-6.316-68.293-8.46-102.509c-1.478-23.588-1.802-47.294,2.364-70.762c2.271-12.792,4.872-25.467,13.689-35.776
			c15.179-17.747,32.713-32.646,53.158-44.023c27.986-15.574,57.869-21.981,89.685-17.58c28.434,3.933,53.56,16.136,77.696,31.257
			c16.86,10.562,27.481,26.21,34.85,43.25c11.231,25.972,16.047,53.996,18.821,82.194c1.726,17.545,2.911,35.146,4.816,52.67
			c1.812,16.664,4.133,33.275,6.438,49.881c2.083,15.001,4.852,30.052,12.247,43.346c10.951,19.689,22.106,39.391,34.89,57.903
			c16.894,24.462,35.563,47.692,53.218,71.637c5.858,7.944,10.941,16.46,16.582,25.024c1.294-2.051,2.475-3.761,3.494-5.563
			c17.33-30.645,30.657-62.878,38.932-97.171c5.686-23.561,9.318-47.454,10.27-71.606c0.927-23.506,0.585-47.11-3.88-70.341
			c-3.442-17.907-6.625-35.962-11.69-53.44c-13.757-47.472-37.076-89.979-68.448-128.233c-17.901-21.827-37.961-41.333-60.13-58.622
			c-24.028-18.738-50.229-33.997-78.143-46.299c-38.812-17.105-79.529-26.62-121.667-29.945
			c-13.372-1.055-26.895-0.221-40.348-0.206c-22.337,0.025-44.274,3.463-66.027,8.131c-26.154,5.612-51.367,14.178-75.577,25.525
			c-30.614,14.349-58.867,32.345-84.65,54.365c-18.401,15.715-35.247,32.869-50.232,51.747
			c-21.68,27.313-39.341,57.117-52.659,89.421c-15.393,37.339-24.535,76.224-27.201,116.44c-1.811,27.315-0.661,54.627,3.7,81.802
			c3.813,23.758,9.626,46.931,17.608,69.576c10.309,29.247,25.089,56.261,41.545,82.43c0.929,1.477,1.359,3.86,0.911,5.522
			c-9.685,35.859-19.528,71.675-29.343,107.499C160.238,824.02,157.875,832.619,155.282,842.067z M608.323,525.612
			c-1.094,0.82-1.722,1.303-2.361,1.768c-14.645,10.651-28.818,22.04-44.052,31.769c-20.997,13.41-43.743,22.363-69.428,20.812
			c-14.619-0.883-28.055-3.945-38.373-15.911c-5.084-5.895-11.963-10.242-18.66-15.814c-0.513,13.884-4.875,25.766-10.736,37.152
			c-5.69,11.054-12.379,21.672-17.164,33.095c-6.184,14.764-11.832,29.893-15.929,45.338c-2.478,9.343-4.969,18.371-9.27,27.08
			c-13.21,26.747-26.461,53.493-38.765,80.661c-7.493,16.546-12.251,34.158-15.379,52.572c10.954,4.748,21.605,9.54,32.39,14.007
			c40.707,16.86,83.315,25.084,127.167,26.669c14.718,0.532,29.612-0.27,44.251-1.972c18.373-2.137,36.782-4.884,54.792-9.031
			c45.97-10.585,87.862-30.538,126.29-57.794c1.317-0.934,2.576-3.262,2.408-4.78c-2.301-20.841-6.82-41.182-13.885-60.973
			c-5.503-15.417-15.711-27.986-24.262-41.576c-11.52-18.308-22.712-36.977-23.683-59.286c-0.405-9.303-4.101-16.714-8.13-24.489
			c-10.433-20.133-21.292-40.066-29.329-61.359C613.959,537.574,611.08,531.83,608.323,525.612z M605.292,468.882
			c0.389-1.972,0.88-4.367,1.331-6.769c3.723-19.818,6.702-39.651,3.482-59.905c-2.538-15.958-9.415-28.453-26.165-32.616
			c-5.862-1.457-12.321-2.231-18.243-1.411c-21.928,3.034-31.097,11.334-33.513,31.979c-1.58,13.501,1.829,26.661,6.874,39.352
			c2.09,5.257,6.292,6.15,11.146,7.661c-4.132-8.763-3.442-30.615,0.929-39.546c7.479-15.28,24.829-18.878,38.003-8.181
			c6.611,5.368,9.431,12.706,11.49,20.359c2.501,9.296,2.661,18.7-1.335,27.808c-2.982,6.795-8.464,10.65-16.322,13.203
			C590.93,463.691,597.923,466.218,605.292,468.882z M443.558,461.56c-3.967-4.857-9.475-8.943-11.235-14.267
			c-4.88-14.764-6.853-29.827,4.31-43.381c4.488-5.45,9.984-8.692,16.882-7.525c7.265,1.229,13.15,5.705,15.219,12.819
			c2.981,10.251,4.753,20.854,7.125,31.692c-0.772,0,0.358,0.199,0.453-0.03c1.328-3.214,3.308-6.424,3.571-9.757
			c0.549-6.951,0.301-13.978,0.149-20.969c-0.26-11.992-5.466-21.845-14.156-29.722c-12.637-11.455-31.901-6.871-39.292,8.376
			c-6.834,14.099-8.668,28.795-7.728,44.091c0.828,13.477,7.327,24.152,16.638,33.556
			C438.686,464.511,441.621,462.733,443.558,461.56z M307.085,811.541c10.078-39.108,23.489-75.91,48.088-107.757
			c2.112-2.734,3.95-6.29,1.018-8.709c-3.213-2.651-6.664-0.106-8.964,2.647c-2.436,2.915-4.768,6.032-6.513,9.39
			c-6.63,12.759-13.718,25.348-19.302,38.565c-7.9,18.697-14.673,37.872-21.734,56.914c-0.545,1.47-0.185,4.126,0.837,5.136
			C302.269,809.461,304.878,810.331,307.085,811.541z M766.517,749.786c0.546-0.646,1.597-2.389,3.094-3.561
			c3.611-2.825,3.556-5.982,2.167-10.02c-4.638-13.485-11.489-25.637-20.5-36.678c-8.213-10.063-18.392-17.092-30.666-21.229
			c-3.691-1.244-6.161-0.033-7.7,3.331c-1.622,3.546,0.152,5.765,3.237,7.141c1.49,0.664,3.226,0.75,4.792,1.273
			c3.707,1.239,8.264,1.629,10.896,4.068c7.13,6.61,14.849,13.269,19.718,21.463C757.871,726.204,761.657,738.336,766.517,749.786z
			 M595.871,426.938c-1.264-11.012-5.413-18.402-13.486-23.276c-3.329-2.01-8.099-0.825-8.257,2.208
			c-0.114,2.183,1.787,6.027,3.492,6.478c7.158,1.895,9.031,7.407,10.132,13.319c0.544,2.925,0.804,5.795,4.244,5.15
			C593.736,430.491,595.038,427.83,595.871,426.938z M464.876,425.419c-1.325-4.709-1.78-9.593-4.04-13.407
			c-2.118-3.574-5.78-6.658-9.448-8.761c-3.235-1.854-6.188,0.6-7.205,3.982c-0.988,3.285,0.541,5.393,4.185,5.737
			c3.788,0.358,5.031,2.97,5.882,6.332c0.784,3.099,1.995,6.211,3.69,8.892c0.59,0.933,3.296,1.038,4.83,0.668
			C463.653,428.65,464.126,426.732,464.876,425.419z"/>
		<path fill="#F1F1F1" d="M477.086,459.95c0.49-5.353,1.355-9.372,7.21-9.653c1.542-0.074,3.058-1.122,4.546-1.811
			c3.178-1.472,5.382,0.762,4.098,2.843c-2.816,4.564-6.439,8.972-10.688,12.174C479.95,465.238,476.216,463.759,477.086,459.95z"/>
		<path fill="#F3F3F3" d="M506.542,448.36c6.001-0.896,14.838,5.461,15.376,11.256c0.103,1.108-0.602,3.126-1.308,3.314
			c-1.981,0.527-4.365,0.912-6.215,0.27C510.685,461.914,506.011,452.463,506.542,448.36z"/>
	</g>
</g>
</svg>
